# This file uses centimeters as units for non-parametric coordinates.

mtllib pen.mtl
g default
v -2.672795 -0.809017 -0.587785
v -2.672795 -0.309017 -0.951057
v -2.672795 0.309017 -0.951057
v -2.672795 0.809017 -0.587785
v -2.672795 1.000000 0.000000
v -2.672795 0.809017 0.587785
v -2.672795 0.309017 0.951057
v -2.672795 -0.309017 0.951057
v -2.672795 -0.809017 0.587785
v -2.672795 -1.000000 0.000000
v -0.672795 -0.809017 -0.587785
v -0.672795 -0.309017 -0.951057
v -0.672795 0.309017 -0.951057
v -0.672795 0.809017 -0.587785
v -0.672795 1.000000 0.000000
v -0.672795 0.809017 0.587785
v -0.672795 0.309017 0.951057
v -0.672795 -0.309017 0.951057
v -0.672795 -0.809017 0.587785
v -0.672795 -1.000000 0.000000
v 7.593200 -0.809017 -0.587785
v 7.593200 -0.309017 -0.951057
v 7.593200 0.309017 -0.951057
v 7.593200 0.809017 -0.587785
v 7.593200 1.000000 0.000000
v 7.593200 0.809017 0.587785
v 7.593200 0.309017 0.951057
v 7.593200 -0.309017 0.951057
v 7.593200 -0.809017 0.587785
v 7.593200 -1.000000 0.000000
v 7.845135 -0.634590 -0.461057
v 7.845135 -0.242392 -0.746005
v 7.845135 0.242392 -0.746005
v 7.845135 0.634590 -0.461056
v 7.845135 0.784396 0.000000
v 7.845135 0.634590 0.461056
v 7.845135 0.242392 0.746005
v 7.845135 -0.242392 0.746005
v 7.845135 -0.634590 0.461056
v 7.845135 -0.784396 -0.000000
v 7.940842 -0.391343 -0.284328
v 7.940842 -0.149480 -0.460052
v 7.940842 0.149480 -0.460052
v 7.940842 0.391343 -0.284328
v 7.940842 0.483727 -0.000000
v 7.940842 0.391343 0.284328
v 7.940842 0.149480 0.460052
v 7.940842 -0.149480 0.460052
v 7.940842 -0.391343 0.284328
v 7.940842 -0.483727 -0.000000
v -2.803303 -0.856287 -0.000000
v -2.803303 -0.692751 -0.503314
v -2.803303 -0.692751 0.503313
v -2.803303 -0.264607 0.814379
v -2.803303 0.264607 0.814379
v -2.803303 0.692751 0.503314
v -2.803303 0.856287 -0.000000
v -2.803303 0.692751 -0.503314
v -2.803303 0.264608 -0.814379
v -2.803303 -0.264607 -0.814379
v -3.595993 -0.604186 -0.000000
v -3.595993 -0.488797 -0.355133
v -3.595993 -0.488797 0.355132
v -3.595993 -0.186704 0.574615
v -3.595993 0.186704 0.574615
v -3.595993 0.488798 0.355132
v -3.595993 0.604186 0.000000
v -3.595993 0.488798 -0.355132
v -3.595993 0.186704 -0.574615
v -3.595993 -0.186704 -0.574615
v -3.714761 -0.497201 -0.000000
v -3.714761 -0.402245 -0.292248
v -3.714761 -0.402245 0.292248
v -3.714761 -0.153644 0.472867
v -3.714761 0.153644 0.472867
v -3.714761 0.402245 0.292248
v -3.714761 0.497202 -0.000000
v -3.714761 0.402245 -0.292248
v -3.714761 0.153644 -0.472867
v -3.714761 -0.153644 -0.472867
v -4.052775 -0.146928 -0.000000
v -4.052775 -0.118868 -0.086363
v -4.052775 -0.118868 0.086363
v -4.052775 -0.045403 0.139737
v -4.052775 0.045403 0.139737
v -4.052775 0.118868 0.086363
v -4.052775 0.146928 -0.000000
v -4.052775 0.118868 -0.086363
v -4.052775 0.045403 -0.139737
v -4.052775 -0.045403 -0.139737
v -4.243722 -0.035573 -0.000000
v -4.243722 -0.028779 -0.020909
v -4.243722 -0.028779 0.020909
v -4.243722 -0.010993 0.033832
v -4.243722 0.010993 0.033832
v -4.243722 0.028779 0.020909
v -4.243722 0.035573 -0.000000
v -4.243722 0.028779 -0.020909
v -4.243722 0.010993 -0.033832
v -4.243722 -0.010993 -0.033832
vt 0.948225 0.315187
vt 0.885246 0.330248
vt 0.000000 0.890892
vt 0.026076 0.831423
vt 0.042388 0.843668
vt 0.020059 0.894592
vt 0.075901 0.789781
vt 0.885165 0.309908
vt 0.939095 0.297011
vt 0.822149 0.315684
vt 0.658967 0.000328
vt 0.761978 0.000437
vt 0.895306 0.543578
vt 0.830602 0.543467
vt 0.830960 0.334079
vt 0.895665 0.334190
vt 0.765897 0.543356
vt 0.761625 0.333791
vt 0.658613 0.333681
vt 0.349931 0.000000
vt 0.452943 0.000109
vt 0.452589 0.333463
vt 0.349577 0.333354
vt 0.766256 0.333968
vt 0.701192 0.543245
vt 0.701551 0.333858
vt 0.636488 0.543135
vt 0.636847 0.333746
vt 0.555954 0.000218
vt 0.555601 0.333572
vt 0.746231 0.796550
vt 0.679231 0.834072
vt 0.467399 0.333483
vt 0.506663 0.333572
vt 0.347532 0.774691
vt 0.289611 0.774691
vt 0.289618 0.000009
vt 0.347540 0.000009
vt 0.231688 0.774691
vt 0.506600 0.859126
vt 0.467348 0.858947
vt 0.349577 0.333678
vt 0.388854 0.333540
vt 0.388885 0.858874
vt 0.419012 0.862207
vt 0.401073 0.919930
vt 0.373895 0.903280
vt 0.386932 0.858891
vt 0.357309 0.962754
vt 0.349639 0.859020
vt 0.428115 0.333442
vt 0.428124 0.858809
vt 0.826077 0.733180
vt 0.885792 0.788986
vt 0.341492 0.934958
vt 0.297891 0.978493
vt 0.297811 0.946480
vt 0.238467 0.962782
vt 0.254152 0.934890
vt 0.850161 0.814366
vt 0.805434 0.771078
vt 0.606958 0.788972
vt 0.952883 0.152933
vt 0.981947 0.192936
vt 0.981947 0.242383
vt 0.952883 0.282386
vt 0.905857 0.297666
vt 0.858830 0.282386
vt 0.829766 0.242382
vt 0.829766 0.192936
vt 0.858830 0.152932
vt 0.905857 0.137653
vt 0.048970 0.910504
vt 0.099638 0.906163
vt 0.098973 0.986092
vt 0.063221 0.989155
vt 0.085054 0.808009
vt 0.139055 0.774690
vt 0.139135 0.795087
vt 0.202328 0.789283
vt 0.193321 0.807582
vt 0.150227 0.911347
vt 0.731978 0.970993
vt 0.668738 0.984272
vt 0.668775 0.956610
vt 0.720818 0.945682
vt 0.819416 0.873397
vt 0.773974 0.896069
vt 0.745184 0.821621
vt 0.777247 0.805624
vt 0.725102 0.909869
vt 0.605533 0.970824
vt 0.816145 0.876440
vt 0.875388 0.863659
vt 0.874260 0.959658
vt 0.856752 0.963435
vt 0.595434 0.759929
vt 0.628227 0.703992
vt 0.648752 0.722679
vt 0.621766 0.768711
vt 0.680851 0.666109
vt 0.934315 0.877829
vt 0.450183 0.877802
vt 0.493579 0.870810
vt 0.493949 0.977807
vt 0.483442 0.979500
vt 0.778705 0.567336
vt 0.751037 0.622789
vt 0.675140 0.560524
vt 0.683316 0.544137
vt 0.702060 0.660761
vt 0.537023 0.877503
vt 0.890876 0.014921
vt 0.842589 -0.000000
vt 0.794303 0.014921
vt 0.764460 0.053986
vt 0.764460 0.102272
vt 0.794303 0.141337
vt 0.842589 0.156258
vt 0.890876 0.141337
vt 0.920718 0.102272
vt 0.920718 0.053986
vt 0.984099 0.615412
vt 0.952756 0.646137
vt 0.890754 0.559129
vt 0.898342 0.551691
vt 0.913483 0.665734
vt 0.881246 0.563874
vt 0.870087 0.672301
vt 0.870739 0.565464
vt 0.826774 0.665204
vt 0.860252 0.563746
vt 0.787743 0.645130
vt 0.850802 0.558885
vt 0.411041 0.897802
vt 0.473965 0.984342
vt 0.660666 0.571745
vt 0.641462 0.673742
vt 0.642759 0.575581
vt 0.581229 0.659164
vt 0.624959 0.571273
vt 0.533273 0.619911
vt 0.610788 0.559674
vt 0.768302 0.913645
vt 0.842615 0.974430
vt 0.692059 0.691504
vt 0.744304 0.652763
vt 0.744277 0.680521
vt 0.807730 0.666236
vt 0.796472 0.691608
vt 0.860279 0.704224
vt 0.839716 0.722869
vt 0.784435 0.933257
vt 0.763986 0.914628
vt 0.710701 0.831359
vt 0.674514 0.914313
vt 0.675006 0.834495
vt 0.623984 0.909245
vt 0.639353 0.830919
vt 0.575286 0.894843
vt 0.604992 0.820757
vt 0.000000 0.924218
vt 0.028669 0.998831
vt 0.252486 0.830522
vt 0.236273 0.842898
vt 0.997905 0.273652
vt 0.981636 0.261446
vt 0.571784 0.543024
vt 0.572142 0.333636
vt 0.507079 0.542913
vt 0.507438 0.333525
vt 0.231697 0.000009
vt 0.173766 0.774691
vt 0.173774 0.000000
vt 0.115844 0.774691
vt 0.115852 0.000000
vt 0.057921 0.774691
vt 0.057929 0.000000
vt 0.000000 0.774691
vt 0.000007 0.000000
vt 0.194642 0.919990
vt 0.221847 0.903169
vt 0.176709 0.862089
vt 0.208960 0.858854
vt 0.347760 0.887745
vt 0.355912 0.859657
vt 0.326554 0.908381
vt 0.297923 0.915961
vt 0.269274 0.908431
vt 0.247965 0.887835
vt 0.239804 0.859758
vt 0.666482 0.733284
vt 0.687248 0.770946
vt 0.642348 0.814269
vt 0.746256 0.712328
vt 0.746381 0.755463
vt 0.813416 0.833914
vt 0.785027 0.806496
vt 0.707551 0.806612
vt 0.831136 0.297437
vt 0.134667 0.989750
vt 0.616761 0.945543
vt 0.891674 0.963846
vt 0.504467 0.979428
vt 0.892958 0.760228
vt 0.866608 0.768957
vt 0.553177 0.932948
vt 0.573676 0.914373
vt 0.530128 0.871612
vt 0.573129 0.804365
vt 0.198961 0.925875
vt 0.169054 1.000000
vt 0.279035 0.889786
vt 0.259007 0.893646
vt 0.772143 0.274542
vt 0.788317 0.262207
vt 0.507079 0.563746
vt 0.603048 0.543076
vt 0.981270 0.916149
vt 0.905549 0.975170
vt 0.756777 0.614025
vt 0.843306 0.551354
vt 0.576302 0.897232
vt 0.513977 0.984205
vn 0.000000 -0.587785 -0.809017
vn 0.000000 -0.587785 -0.809017
vn 0.000000 -0.587785 -0.809017
vn 0.000000 -0.587785 -0.809017
vn -0.000000 0.000000 -1.000000
vn -0.000000 0.000000 -1.000000
vn -0.000000 0.000000 -1.000000
vn -0.000000 0.000000 -1.000000
vn -0.000000 0.587785 -0.809017
vn -0.000000 0.587785 -0.809017
vn -0.000000 0.587785 -0.809017
vn -0.000000 0.587785 -0.809017
vn -0.000000 0.951057 -0.309017
vn -0.000000 0.951057 -0.309017
vn -0.000000 0.951057 -0.309017
vn -0.000000 0.951057 -0.309017
vn -0.000000 0.951056 0.309017
vn -0.000000 0.951056 0.309017
vn -0.000000 0.951056 0.309017
vn -0.000000 0.951056 0.309017
vn -0.000000 0.587785 0.809017
vn -0.000000 0.587785 0.809017
vn -0.000000 0.587785 0.809017
vn -0.000000 0.587785 0.809017
vn 0.000000 -0.000000 1.000000
vn 0.000000 -0.000000 1.000000
vn 0.000000 -0.000000 1.000000
vn 0.000000 -0.000000 1.000000
vn 0.000000 -0.587785 0.809017
vn 0.000000 -0.587785 0.809017
vn 0.000000 -0.587785 0.809017
vn 0.000000 -0.587785 0.809017
vn 0.000000 -0.951057 0.309017
vn 0.000000 -0.951057 0.309017
vn 0.000000 -0.951057 0.309017
vn 0.000000 -0.951057 0.309017
vn 0.000000 -0.951057 -0.309017
vn 0.000000 -0.951057 -0.309017
vn 0.000000 -0.951057 -0.309017
vn 0.000000 -0.951057 -0.309017
vn -1.000000 -0.000000 0.000000
vn -1.000000 -0.000000 0.000000
vn -1.000000 -0.000000 0.000000
vn -1.000000 -0.000000 0.000000
vn -1.000000 -0.000000 0.000000
vn -1.000000 -0.000000 0.000000
vn -1.000000 -0.000000 0.000000
vn -1.000000 -0.000000 0.000000
vn -1.000000 -0.000000 0.000000
vn -1.000000 -0.000000 0.000000
vn 1.000000 0.000000 -0.000000
vn 1.000000 0.000000 -0.000000
vn 1.000000 0.000000 -0.000000
vn 1.000000 0.000000 -0.000000
vn 1.000000 0.000000 -0.000000
vn 1.000000 0.000000 -0.000000
vn 1.000000 0.000000 -0.000000
vn 1.000000 0.000000 -0.000000
vn 1.000000 0.000000 -0.000000
vn 1.000000 0.000000 -0.000000
vn 0.000000 -0.587785 -0.809017
vn 0.000000 -0.587785 -0.809017
vn 0.000000 -0.587785 -0.809017
vn 0.000000 -0.587785 -0.809017
vn -0.000000 0.000000 -1.000000
vn -0.000000 0.000000 -1.000000
vn -0.000000 0.000000 -1.000000
vn -0.000000 0.000000 -1.000000
vn -0.000000 0.587785 -0.809017
vn -0.000000 0.587785 -0.809017
vn -0.000000 0.587785 -0.809017
vn -0.000000 0.587785 -0.809017
vn -0.000000 0.951057 -0.309017
vn -0.000000 0.951057 -0.309017
vn -0.000000 0.951057 -0.309017
vn -0.000000 0.951057 -0.309017
vn -0.000000 0.951057 0.309017
vn -0.000000 0.951057 0.309017
vn -0.000000 0.951057 0.309017
vn -0.000000 0.951057 0.309017
vn -0.000000 0.587785 0.809017
vn -0.000000 0.587785 0.809017
vn -0.000000 0.587785 0.809017
vn -0.000000 0.587785 0.809017
vn 0.000000 -0.000000 1.000000
vn 0.000000 -0.000000 1.000000
vn 0.000000 -0.000000 1.000000
vn 0.000000 -0.000000 1.000000
vn 0.000000 -0.587785 0.809017
vn 0.000000 -0.587785 0.809017
vn 0.000000 -0.587785 0.809017
vn 0.000000 -0.587785 0.809017
vn 0.000000 -0.951057 0.309017
vn 0.000000 -0.951057 0.309017
vn 0.000000 -0.951057 0.309017
vn 0.000000 -0.951057 0.309017
vn 0.000000 -0.951057 -0.309017
vn 0.000000 -0.951057 -0.309017
vn 0.000000 -0.951057 -0.309017
vn 0.000000 -0.951057 -0.309017
vn 0.631249 -0.455874 -0.627459
vn 0.631249 -0.455874 -0.627459
vn 0.631249 -0.455874 -0.627459
vn 0.631249 -0.455874 -0.627459
vn 0.631250 0.000000 -0.775580
vn 0.631250 0.000000 -0.775580
vn 0.631250 0.000000 -0.775580
vn 0.631250 0.000000 -0.775580
vn 0.631249 0.455874 -0.627458
vn 0.631249 0.455874 -0.627458
vn 0.631249 0.455874 -0.627458
vn 0.631249 0.455874 -0.627458
vn 0.631250 0.737620 -0.239666
vn 0.631250 0.737620 -0.239666
vn 0.631250 0.737620 -0.239666
vn 0.631250 0.737620 -0.239666
vn 0.631250 0.737620 0.239667
vn 0.631250 0.737620 0.239667
vn 0.631250 0.737620 0.239667
vn 0.631250 0.737620 0.239667
vn 0.631250 0.455875 0.627456
vn 0.631250 0.455875 0.627456
vn 0.631250 0.455875 0.627456
vn 0.631250 0.455875 0.627456
vn 0.631249 -0.000000 0.775580
vn 0.631249 -0.000000 0.775580
vn 0.631249 -0.000000 0.775580
vn 0.631249 -0.000000 0.775580
vn 0.631249 -0.455874 0.627458
vn 0.631249 -0.455874 0.627458
vn 0.631249 -0.455874 0.627458
vn 0.631249 -0.455874 0.627458
vn 0.631250 -0.737620 0.239667
vn 0.631250 -0.737620 0.239667
vn 0.631250 -0.737620 0.239667
vn 0.631250 -0.737620 0.239667
vn 0.631250 -0.737620 -0.239667
vn 0.631250 -0.737620 -0.239667
vn 0.631250 -0.737620 -0.239667
vn 0.631250 -0.737620 -0.239667
vn 0.948296 -0.186557 -0.256772
vn 0.948296 -0.186557 -0.256772
vn 0.948296 -0.186557 -0.256772
vn 0.948296 -0.186557 -0.256772
vn 0.948296 0.000000 -0.317389
vn 0.948295 0.000000 -0.317389
vn 0.948295 0.000000 -0.317389
vn 0.948296 0.000000 -0.317389
vn 0.948295 0.186557 -0.256774
vn 0.948295 0.186557 -0.256774
vn 0.948295 0.186557 -0.256774
vn 0.948295 0.186557 -0.256774
vn 0.948295 0.301855 -0.098078
vn 0.948296 0.301855 -0.098078
vn 0.948295 0.301855 -0.098078
vn 0.948296 0.301855 -0.098078
vn 0.948296 0.301855 0.098078
vn 0.948296 0.301855 0.098078
vn 0.948296 0.301855 0.098078
vn 0.948296 0.301855 0.098078
vn 0.948296 0.186557 0.256772
vn 0.948296 0.186557 0.256772
vn 0.948296 0.186557 0.256772
vn 0.948296 0.186557 0.256772
vn 0.948295 0.000000 0.317392
vn 0.948295 0.000000 0.317392
vn 0.948295 0.000000 0.317392
vn 0.948295 0.000000 0.317392
vn 0.948296 -0.186557 0.256772
vn 0.948296 -0.186557 0.256772
vn 0.948296 -0.186557 0.256772
vn 0.948296 -0.186557 0.256772
vn 0.948296 -0.301855 0.098078
vn 0.948295 -0.301855 0.098078
vn 0.948295 -0.301855 0.098078
vn 0.948296 -0.301855 0.098078
vn 0.948295 -0.301855 -0.098078
vn 0.948295 -0.301855 -0.098078
vn 0.948296 -0.301855 -0.098078
vn 0.948295 -0.301855 -0.098078
vn -0.723245 -0.656792 -0.213404
vn -0.723245 -0.656792 -0.213404
vn -0.723245 -0.656792 -0.213404
vn -0.723245 -0.656792 -0.213404
vn -0.723245 -0.656792 0.213405
vn -0.723245 -0.656792 0.213405
vn -0.723245 -0.656792 0.213405
vn -0.723245 -0.656792 0.213405
vn -0.723244 -0.405921 0.558701
vn -0.723244 -0.405921 0.558701
vn -0.723244 -0.405921 0.558701
vn -0.723244 -0.405921 0.558701
vn -0.723243 -0.000000 0.690594
vn -0.723243 -0.000000 0.690594
vn -0.723243 -0.000000 0.690594
vn -0.723243 -0.000000 0.690594
vn -0.723244 0.405920 0.558701
vn -0.723244 0.405921 0.558701
vn -0.723244 0.405921 0.558701
vn -0.723244 0.405921 0.558701
vn -0.723245 0.656792 0.213404
vn -0.723245 0.656792 0.213404
vn -0.723245 0.656792 0.213404
vn -0.723245 0.656792 0.213404
vn -0.723245 0.656792 -0.213404
vn -0.723245 0.656792 -0.213404
vn -0.723245 0.656792 -0.213404
vn -0.723245 0.656792 -0.213404
vn -0.723243 0.405921 -0.558702
vn -0.723243 0.405920 -0.558702
vn -0.723243 0.405921 -0.558702
vn -0.723243 0.405921 -0.558702
vn -0.723243 0.000000 -0.690594
vn -0.723243 0.000000 -0.690594
vn -0.723243 0.000000 -0.690594
vn -0.723243 0.000000 -0.690594
vn -0.723244 -0.405920 -0.558702
vn -0.723244 -0.405921 -0.558702
vn -0.723244 -0.405920 -0.558702
vn -0.723244 -0.405920 -0.558701
vn -0.289514 -0.910327 -0.295782
vn -0.289514 -0.910327 -0.295782
vn -0.289514 -0.910327 -0.295782
vn -0.289514 -0.910327 -0.295782
vn -0.289514 -0.910327 0.295782
vn -0.289513 -0.910327 0.295782
vn -0.289514 -0.910327 0.295782
vn -0.289513 -0.910327 0.295782
vn -0.289514 -0.562613 0.774370
vn -0.289514 -0.562613 0.774370
vn -0.289514 -0.562613 0.774370
vn -0.289514 -0.562613 0.774370
vn -0.289515 -0.000000 0.957174
vn -0.289515 -0.000000 0.957174
vn -0.289515 -0.000000 0.957174
vn -0.289515 -0.000000 0.957174
vn -0.289514 0.562612 0.774370
vn -0.289514 0.562612 0.774370
vn -0.289514 0.562612 0.774370
vn -0.289514 0.562612 0.774370
vn -0.289513 0.910327 0.295782
vn -0.289513 0.910327 0.295782
vn -0.289513 0.910327 0.295782
vn -0.289513 0.910327 0.295782
vn -0.289514 0.910327 -0.295782
vn -0.289514 0.910327 -0.295782
vn -0.289514 0.910327 -0.295782
vn -0.289514 0.910327 -0.295782
vn -0.289514 0.562612 -0.774370
vn -0.289514 0.562612 -0.774370
vn -0.289514 0.562612 -0.774370
vn -0.289514 0.562612 -0.774370
vn -0.289514 -0.000000 -0.957174
vn -0.289514 -0.000000 -0.957174
vn -0.289514 -0.000000 -0.957174
vn -0.289514 -0.000000 -0.957174
vn -0.289514 -0.562612 -0.774370
vn -0.289514 -0.562612 -0.774370
vn -0.289514 -0.562612 -0.774370
vn -0.289514 -0.562612 -0.774370
vn -0.650594 -0.722257 -0.234673
vn -0.650594 -0.722257 -0.234673
vn -0.650594 -0.722257 -0.234673
vn -0.650594 -0.722257 -0.234673
vn -0.650594 -0.722257 0.234674
vn -0.650594 -0.722257 0.234674
vn -0.650594 -0.722257 0.234674
vn -0.650594 -0.722257 0.234674
vn -0.650594 -0.446378 0.614389
vn -0.650594 -0.446378 0.614389
vn -0.650594 -0.446378 0.614389
vn -0.650594 -0.446378 0.614389
vn -0.650594 -0.000000 0.759426
vn -0.650594 -0.000000 0.759426
vn -0.650594 -0.000000 0.759426
vn -0.650594 -0.000000 0.759426
vn -0.650594 0.446378 0.614390
vn -0.650594 0.446378 0.614390
vn -0.650594 0.446378 0.614390
vn -0.650594 0.446378 0.614390
vn -0.650594 0.722257 0.234674
vn -0.650594 0.722257 0.234674
vn -0.650594 0.722257 0.234674
vn -0.650594 0.722257 0.234674
vn -0.650594 0.722257 -0.234673
vn -0.650594 0.722257 -0.234673
vn -0.650594 0.722257 -0.234673
vn -0.650594 0.722257 -0.234673
vn -0.650594 0.446378 -0.614390
vn -0.650594 0.446378 -0.614390
vn -0.650594 0.446378 -0.614390
vn -0.650594 0.446378 -0.614389
vn -0.650594 -0.000000 -0.759426
vn -0.650594 -0.000000 -0.759426
vn -0.650594 -0.000000 -0.759426
vn -0.650593 -0.000000 -0.759426
vn -0.650594 -0.446378 -0.614389
vn -0.650594 -0.446378 -0.614389
vn -0.650594 -0.446378 -0.614389
vn -0.650594 -0.446378 -0.614389
vn -0.701942 -0.677375 -0.220089
vn -0.701942 -0.677375 -0.220089
vn -0.701942 -0.677375 -0.220090
vn -0.701942 -0.677375 -0.220089
vn -0.701942 -0.677375 0.220090
vn -0.701942 -0.677375 0.220090
vn -0.701942 -0.677375 0.220090
vn -0.701942 -0.677375 0.220090
vn -0.701942 -0.418639 0.576210
vn -0.701942 -0.418639 0.576210
vn -0.701942 -0.418639 0.576210
vn -0.701942 -0.418639 0.576210
vn -0.701942 -0.000000 0.712234
vn -0.701942 -0.000000 0.712234
vn -0.701942 -0.000000 0.712234
vn -0.701942 -0.000000 0.712234
vn -0.701942 0.418639 0.576211
vn -0.701942 0.418639 0.576211
vn -0.701942 0.418639 0.576211
vn -0.701942 0.418639 0.576211
vn -0.701942 0.677375 0.220090
vn -0.701942 0.677375 0.220090
vn -0.701942 0.677375 0.220090
vn -0.701942 0.677375 0.220090
vn -0.701942 0.677375 -0.220090
vn -0.701942 0.677375 -0.220090
vn -0.701942 0.677375 -0.220090
vn -0.701942 0.677375 -0.220090
vn -0.701942 0.418639 -0.576211
vn -0.701942 0.418639 -0.576211
vn -0.701942 0.418639 -0.576211
vn -0.701942 0.418639 -0.576211
vn -0.701942 -0.000000 -0.712234
vn -0.701942 -0.000000 -0.712234
vn -0.701942 -0.000000 -0.712234
vn -0.701942 -0.000000 -0.712234
vn -0.701942 -0.418639 -0.576210
vn -0.701942 -0.418639 -0.576211
vn -0.701942 -0.418639 -0.576211
vn -0.701942 -0.418639 -0.576211
vn -0.485026 -0.831701 -0.270229
vn -0.485026 -0.831701 -0.270229
vn -0.485026 -0.831701 -0.270229
vn -0.485026 -0.831701 -0.270229
vn -0.485026 -0.831701 0.270230
vn -0.485026 -0.831700 0.270230
vn -0.485026 -0.831701 0.270230
vn -0.485026 -0.831700 0.270230
vn -0.485025 -0.514014 0.707488
vn -0.485025 -0.514014 0.707488
vn -0.485025 -0.514014 0.707488
vn -0.485025 -0.514014 0.707488
vn -0.485025 -0.000000 0.874500
vn -0.485025 -0.000000 0.874500
vn -0.485025 -0.000000 0.874500
vn -0.485025 -0.000000 0.874500
vn -0.485026 0.514014 0.707489
vn -0.485026 0.514014 0.707489
vn -0.485026 0.514014 0.707489
vn -0.485026 0.514014 0.707488
vn -0.485026 0.831701 0.270230
vn -0.485026 0.831701 0.270230
vn -0.485026 0.831701 0.270230
vn -0.485026 0.831701 0.270230
vn -0.485026 0.831701 -0.270230
vn -0.485026 0.831701 -0.270230
vn -0.485026 0.831701 -0.270230
vn -0.485026 0.831701 -0.270230
vn -0.485025 0.514014 -0.707488
vn -0.485025 0.514014 -0.707488
vn -0.485025 0.514014 -0.707488
vn -0.485025 0.514014 -0.707488
vn -0.485025 -0.000000 -0.874500
vn -0.485025 -0.000000 -0.874500
vn -0.485025 -0.000000 -0.874500
vn -0.485025 -0.000000 -0.874500
vn -0.485026 -0.514014 -0.707488
vn -0.485026 -0.514014 -0.707488
vn -0.485026 -0.514014 -0.707488
vn -0.485026 -0.514014 -0.707488
s off
g pen
usemtl initialShadingGroup
f 1/11/1 2/12/2 12/18/3 11/19/4
f 2/13/5 3/14/6 13/15/7 12/16/8
f 3/14/9 4/17/10 14/24/11 13/15/12
f 4/17/13 5/25/14 15/26/15 14/24/16
f 5/25/17 6/27/18 16/28/19 15/26/20
f 6/27/21 7/168/22 17/169/23 16/28/24
f 7/168/25 8/170/26 18/171/27 17/169/28
f 8/20/29 9/21/30 19/22/31 18/23/32
f 9/21/33 10/29/34 20/30/35 19/22/36
f 10/29/37 1/11/38 11/19/39 20/30/40
f 92/113/41 91/114/42 93/115/43 94/116/44 95/117/45 96/118/46 97/119/47 98/120/48 99/121/49 100/122/50
f 41/63/51 42/64/52 43/65/53 44/66/54 45/67/55 46/68/56 47/69/57 48/70/58 49/71/59 50/72/60
f 11/33/61 12/34/62 22/40/63 21/41/64
f 12/35/65 13/36/66 23/37/67 22/38/68
f 13/36/69 14/39/70 24/172/71 23/37/72
f 14/39/73 15/173/74 25/174/75 24/172/76
f 15/173/77 16/175/78 26/176/79 25/174/80
f 16/175/81 17/177/82 27/178/83 26/176/84
f 17/177/85 18/179/86 28/180/87 27/178/88
f 18/42/89 19/43/90 29/44/91 28/50/92
f 19/43/93 20/51/94 30/52/95 29/44/96
f 20/51/97 11/33/98 21/41/99 30/52/100
f 21/53/101 22/54/102 32/60/103 31/61/104
f 22/45/105 23/46/106 33/47/107 32/48/108
f 23/46/109 24/49/110 34/55/111 33/47/112
f 24/49/113 25/56/114 35/57/115 34/55/116
f 25/56/117 26/58/118 36/59/119 35/57/120
f 26/58/121 27/181/122 37/182/123 36/59/124
f 27/181/125 28/183/126 38/184/127 37/182/128
f 28/62/129 29/192/130 39/193/131 38/194/132
f 29/192/133 30/195/134 40/196/135 39/193/136
f 30/195/137 21/53/138 31/61/139 40/196/140
f 31/61/141 32/60/142 42/197/143 41/198/144
f 32/48/145 33/47/146 43/185/147 42/186/148
f 33/47/149 34/55/150 44/187/151 43/185/152
f 34/55/153 35/57/154 45/188/155 44/187/156
f 35/57/157 36/59/158 46/189/159 45/188/160
f 36/59/161 37/182/162 47/190/163 46/189/164
f 37/182/165 38/184/166 48/191/167 47/190/168
f 38/194/169 39/193/170 49/199/171 48/32/172
f 39/193/173 40/196/174 50/31/175 49/199/176
f 40/196/177 31/61/178 41/198/179 50/31/180
f 1/1/181 10/2/182 51/8/183 52/9/184
f 10/2/185 9/10/186 53/200/187 51/8/188
f 9/10/189 8/215/190 54/216/191 53/200/192
f 8/3/193 7/4/194 55/5/195 54/6/196
f 7/4/197 6/7/198 56/77/199 55/5/200
f 6/7/201 5/78/202 57/79/203 56/77/204
f 5/78/205 4/80/206 58/81/207 57/79/208
f 4/80/209 3/164/210 59/165/211 58/81/212
f 3/164/213 2/213/214 60/214/215 59/165/216
f 2/166/217 1/1/218 52/9/219 60/167/220
f 52/73/221 51/74/222 61/75/223 62/76/224
f 51/74/225 53/82/226 63/201/227 61/75/228
f 53/82/229 54/211/230 64/212/231 63/201/232
f 54/87/233 55/88/234 65/89/235 64/90/236
f 55/88/237 56/91/238 66/155/239 65/89/240
f 56/91/241 57/156/242 67/157/243 66/155/244
f 57/156/245 58/158/246 68/159/247 67/157/248
f 58/158/249 59/160/250 69/161/251 68/159/252
f 59/160/253 60/209/254 70/210/255 69/161/256
f 60/162/257 52/73/258 62/76/259 70/163/260
f 62/83/261 61/84/262 71/85/263 72/86/264
f 61/84/265 63/92/266 73/202/267 71/85/268
f 63/92/269 64/207/270 74/208/271 73/202/272
f 64/97/273 65/98/274 75/99/275 74/100/276
f 65/98/277 66/101/278 76/146/279 75/99/280
f 66/101/281 67/147/282 77/148/283 76/146/284
f 67/147/285 68/149/286 78/150/287 77/148/288
f 68/149/289 69/151/290 79/152/291 78/150/292
f 69/151/293 70/205/294 80/206/295 79/152/296
f 70/153/297 62/83/298 72/86/299 80/154/300
f 72/93/301 71/94/302 81/95/303 82/96/304
f 71/94/305 73/102/306 83/203/307 81/95/308
f 73/102/309 74/219/310 84/220/311 83/203/312
f 74/107/313 75/108/314 85/109/315 84/110/316
f 75/108/317 76/111/318 86/137/319 85/109/320
f 76/111/321 77/138/322 87/139/323 86/137/324
f 77/138/325 78/140/326 88/141/327 87/139/328
f 78/140/329 79/142/330 89/143/331 88/141/332
f 79/142/333 80/217/334 90/218/335 89/143/336
f 80/144/337 72/93/338 82/96/339 90/145/340
f 82/103/341 81/104/342 91/105/343 92/106/344
f 81/104/345 83/112/346 93/204/347 91/105/348
f 83/112/349 84/223/350 94/224/351 93/204/352
f 84/123/353 85/124/354 95/125/355 94/126/356
f 85/124/357 86/127/358 96/128/359 95/125/360
f 86/127/361 87/129/362 97/130/363 96/128/364
f 87/129/365 88/131/366 98/132/367 97/130/368
f 88/131/369 89/133/370 99/134/371 98/132/372
f 89/133/373 90/221/374 100/222/375 99/134/376
f 90/135/377 82/103/378 92/106/379 100/136/380
