# This file uses meters as units for non-parametric coordinates.

mtllib coim.mtl
g default
v 544.232654 306.600616 732.001257
v 542.370096 306.600616 728.345781
v 539.469093 306.600616 725.444779
v 535.813616 306.600616 723.582222
v 531.761490 306.600616 722.940429
v 527.709364 306.600616 723.582223
v 524.053889 306.600616 725.444781
v 521.152888 306.600616 728.345784
v 519.290332 306.600616 732.001259
v 518.648539 306.600616 736.053384
v 519.290332 306.600616 740.105509
v 521.152889 306.600616 743.760983
v 524.053891 306.600616 746.661984
v 527.709365 306.600616 748.524541
v 531.761490 306.600616 749.166335
v 535.813614 306.600616 748.524540
v 539.469088 306.600616 746.661983
v 542.370089 306.600616 743.760982
v 544.232646 306.600616 740.105508
v 544.874439 306.600616 736.053384
v 544.232662 309.489924 732.001257
v 542.370104 309.489924 728.345781
v 539.469101 309.489924 725.444779
v 535.813624 309.489924 723.582222
v 531.761498 309.489924 722.940429
v 527.709372 309.489924 723.582223
v 524.053897 309.489924 725.444781
v 521.152896 309.489924 728.345784
v 519.290340 309.489924 732.001259
v 518.648547 309.489924 736.053384
v 519.290340 309.489924 740.105509
v 521.152897 309.489924 743.760983
v 524.053899 309.489924 746.661984
v 527.709373 309.489924 748.524541
v 531.761498 309.489924 749.166335
v 535.813622 309.489924 748.524540
v 539.469096 309.489924 746.661983
v 542.370097 309.489924 743.760982
v 544.232654 309.489924 740.105508
v 544.874447 309.489924 736.053384
v 531.761490 306.600616 736.053384
v 531.761498 309.489924 736.053384
vt 0.934317 0.178164
vt 0.912123 0.115775
vt 0.877556 0.066264
vt 0.833998 0.034476
vt 0.785714 0.023522
vt 0.737430 0.034476
vt 0.693873 0.066264
vt 0.659305 0.115776
vt 0.637112 0.178164
vt 0.629464 0.247321
vt 0.637112 0.316479
vt 0.659305 0.378867
vt 0.693873 0.428379
vt 0.737430 0.460167
vt 0.785714 0.471121
vt 0.833998 0.460167
vt 0.877556 0.428379
vt 0.912123 0.378867
vt 0.934317 0.316479
vt 0.941964 0.247321
vt 0.135714 0.517857
vt 0.148214 0.517857
vt 0.160714 0.517857
vt 0.173214 0.517857
vt 0.185714 0.517857
vt 0.198214 0.517857
vt 0.210714 0.517857
vt 0.223214 0.517857
vt 0.235714 0.517857
vt 0.248214 0.517857
vt 0.260714 0.517857
vt 0.273214 0.517857
vt 0.285714 0.517857
vt 0.298214 0.517857
vt 0.310714 0.517857
vt 0.323214 0.517857
vt 0.335714 0.517857
vt 0.348214 0.517857
vt 0.360714 0.517857
vt 0.373214 0.517857
vt 0.385714 0.517857
vt 0.135714 0.893797
vt 0.148214 0.893797
vt 0.160714 0.893797
vt 0.173214 0.893797
vt 0.185714 0.893797
vt 0.198214 0.893797
vt 0.210714 0.893797
vt 0.223214 0.893797
vt 0.235714 0.893797
vt 0.248214 0.893797
vt 0.260714 0.893797
vt 0.273214 0.893797
vt 0.285714 0.893797
vt 0.298214 0.893797
vt 0.310714 0.893797
vt 0.323214 0.893797
vt 0.335714 0.893797
vt 0.348214 0.893797
vt 0.360714 0.893797
vt 0.373214 0.893797
vt 0.385714 0.893797
vt 0.934317 0.629229
vt 0.912123 0.567801
vt 0.877556 0.519052
vt 0.833998 0.487754
vt 0.785714 0.476969
vt 0.737430 0.487754
vt 0.693873 0.519052
vt 0.659305 0.567801
vt 0.637112 0.629229
vt 0.629464 0.697321
vt 0.637112 0.765414
vt 0.659305 0.826841
vt 0.693873 0.875590
vt 0.737430 0.906889
vt 0.785714 0.917674
vt 0.833998 0.906889
vt 0.877556 0.875590
vt 0.912123 0.826841
vt 0.934317 0.765414
vt 0.941964 0.697321
vt 0.785714 0.238369
vt 0.785714 0.688507
vn 0.951057 -0.000003 -0.309016
vn 0.809017 -0.000002 -0.587785
vn 0.809017 -0.000002 -0.587785
vn 0.951057 -0.000003 -0.309016
vn 0.587785 -0.000002 -0.809017
vn 0.587785 -0.000002 -0.809017
vn 0.309017 -0.000001 -0.951057
vn 0.309017 -0.000001 -0.951057
vn -0.000000 0.000000 -1.000000
vn -0.000000 -0.000000 -1.000000
vn -0.309017 0.000001 -0.951057
vn -0.309017 0.000001 -0.951057
vn -0.587785 0.000002 -0.809017
vn -0.587785 0.000002 -0.809017
vn -0.809017 0.000002 -0.587785
vn -0.809017 0.000002 -0.587785
vn -0.951057 0.000003 -0.309017
vn -0.951057 0.000003 -0.309017
vn -1.000000 0.000003 0.000000
vn -1.000000 0.000003 0.000000
vn -0.951056 0.000003 0.309017
vn -0.951057 0.000003 0.309017
vn -0.809017 0.000002 0.587785
vn -0.809017 0.000002 0.587785
vn -0.587785 0.000002 0.809017
vn -0.587785 0.000002 0.809017
vn -0.309017 0.000001 0.951056
vn -0.309017 0.000001 0.951057
vn -0.000000 0.000000 1.000000
vn 0.000000 -0.000000 1.000000
vn 0.309017 -0.000001 0.951056
vn 0.309017 -0.000001 0.951056
vn 0.587785 -0.000002 0.809017
vn 0.587785 -0.000002 0.809017
vn 0.809017 -0.000002 0.587785
vn 0.809017 -0.000002 0.587785
vn 0.951057 -0.000003 0.309017
vn 0.951057 -0.000003 0.309017
vn 1.000000 -0.000003 0.000001
vn 1.000000 -0.000003 0.000001
vn 0.000000 -1.000000 -0.000000
vn 0.000000 -1.000000 0.000000
vn 0.000000 -1.000000 -0.000000
vn 0.000000 -1.000000 -0.000000
vn 0.000000 -1.000000 0.000000
vn 0.000000 -1.000000 0.000000
vn 0.000000 -1.000000 0.000000
vn 0.000000 -1.000000 0.000000
vn 0.000000 -1.000000 0.000000
vn 0.000000 -1.000000 0.000000
vn 0.000000 -1.000000 0.000000
vn 0.000000 -1.000000 0.000000
vn 0.000000 -1.000000 -0.000000
vn 0.000000 -1.000000 -0.000000
vn 0.000000 -1.000000 0.000000
vn 0.000000 -1.000000 -0.000000
vn 0.000000 -1.000000 -0.000000
vn 0.000000 -1.000000 0.000000
vn 0.000000 -1.000000 0.000000
vn 0.000000 -1.000000 0.000000
vn 0.000000 -1.000000 0.000000
vn 0.000000 1.000000 0.000000
vn 0.000000 1.000000 0.000000
vn 0.000000 1.000000 0.000000
vn 0.000000 1.000000 0.000000
vn 0.000000 1.000000 0.000000
vn 0.000000 1.000000 0.000000
vn 0.000000 1.000000 0.000000
vn 0.000000 1.000000 0.000000
vn 0.000000 1.000000 0.000000
vn 0.000000 1.000000 0.000000
vn 0.000000 1.000000 0.000000
vn 0.000000 1.000000 0.000000
vn 0.000000 1.000000 0.000000
vn 0.000000 1.000000 0.000000
vn 0.000000 1.000000 0.000000
vn 0.000000 1.000000 -0.000000
vn 0.000000 1.000000 -0.000000
vn 0.000000 1.000000 0.000000
vn 0.000000 1.000000 0.000000
vn 0.000000 1.000000 0.000000
vn 0.000000 1.000000 0.000000
s 1
g pCylinder1
usemtl lambert3SG
f 1/21/1 2/22/2 22/43/3 21/42/4
f 2/22/2 3/23/5 23/44/6 22/43/3
f 3/23/5 4/24/7 24/45/8 23/44/6
f 4/24/7 5/25/9 25/46/10 24/45/8
f 5/25/9 6/26/11 26/47/12 25/46/10
f 6/26/11 7/27/13 27/48/14 26/47/12
f 7/27/13 8/28/15 28/49/16 27/48/14
f 8/28/15 9/29/17 29/50/18 28/49/16
f 9/29/17 10/30/19 30/51/20 29/50/18
f 10/30/19 11/31/21 31/52/22 30/51/20
f 11/31/21 12/32/23 32/53/24 31/52/22
f 12/32/23 13/33/25 33/54/26 32/53/24
f 13/33/25 14/34/27 34/55/28 33/54/26
f 14/34/27 15/35/29 35/56/30 34/55/28
f 15/35/29 16/36/31 36/57/32 35/56/30
f 16/36/31 17/37/33 37/58/34 36/57/32
f 17/37/33 18/38/35 38/59/36 37/58/34
f 18/38/35 19/39/37 39/60/38 38/59/36
f 19/39/37 20/40/39 40/61/40 39/60/38
f 20/40/39 1/41/1 21/62/4 40/61/40
s 2
f 2/2/41 1/1/42 41/83/43
f 3/3/44 2/2/41 41/83/43
f 4/4/45 3/3/44 41/83/43
f 5/5/46 4/4/45 41/83/43
f 6/6/47 5/5/46 41/83/43
f 7/7/48 6/6/47 41/83/43
f 8/8/49 7/7/48 41/83/43
f 9/9/50 8/8/49 41/83/43
f 10/10/51 9/9/50 41/83/43
f 11/11/52 10/10/51 41/83/43
f 12/12/53 11/11/52 41/83/43
f 13/13/54 12/12/53 41/83/43
f 14/14/55 13/13/54 41/83/43
f 15/15/56 14/14/55 41/83/43
f 16/16/57 15/15/56 41/83/43
f 17/17/58 16/16/57 41/83/43
f 18/18/59 17/17/58 41/83/43
f 19/19/60 18/18/59 41/83/43
f 20/20/61 19/19/60 41/83/43
f 1/1/42 20/20/61 41/83/43
s 3
f 21/81/62 22/80/63 42/84/64
f 22/80/63 23/79/65 42/84/64
f 23/79/65 24/78/66 42/84/64
f 24/78/66 25/77/67 42/84/64
f 25/77/67 26/76/68 42/84/64
f 26/76/68 27/75/69 42/84/64
f 27/75/69 28/74/70 42/84/64
f 28/74/70 29/73/71 42/84/64
f 29/73/71 30/72/72 42/84/64
f 30/72/72 31/71/73 42/84/64
f 31/71/73 32/70/74 42/84/64
f 32/70/74 33/69/75 42/84/64
f 33/69/75 34/68/76 42/84/64
f 34/68/76 35/67/77 42/84/64
f 35/67/77 36/66/78 42/84/64
f 36/66/78 37/65/79 42/84/64
f 37/65/79 38/64/80 42/84/64
f 38/64/80 39/63/81 42/84/64
f 39/63/81 40/82/82 42/84/64
f 40/82/82 21/81/62 42/84/64
