# This file uses meters as units for non-parametric coordinates.

mtllib pillow.mtl
g default
v 476.535969 267.931174 790.579069
v 563.736447 268.450265 790.579069
v 476.535969 276.246597 790.579069
v 563.736447 275.727505 790.579069
v 471.825127 278.116847 632.328073
v 568.447289 277.364235 632.328073
v 471.825127 266.060924 632.328073
v 568.447289 266.813535 632.328073
v 570.136208 283.813061 671.721477
v 470.136208 285.485702 671.721477
v 470.136208 258.692069 671.721477
v 570.136208 260.364710 671.721477
v 570.136208 275.323604 700.851208
v 470.136208 285.485702 700.851208
v 470.136208 258.692069 700.851208
v 570.136208 260.364710 700.851208
v 570.136208 275.323604 729.483670
v 470.136208 285.485702 729.483670
v 470.136208 258.692069 729.483670
v 570.136208 260.364710 729.483670
v 570.136208 283.813061 754.917337
v 470.136208 285.485702 754.917337
v 470.136208 258.692069 754.917337
v 570.136208 260.364710 754.917337
v 538.001074 278.133183 790.579069
v 540.623328 291.564580 754.917337
v 540.623328 275.782223 729.483670
v 540.623328 275.782223 700.851208
v 540.623328 291.564580 671.721477
v 539.931306 280.852062 632.328073
v 539.931306 263.325709 632.328073
v 540.623328 252.613190 671.721477
v 540.623328 252.613190 700.851208
v 540.623328 252.613190 729.483670
v 540.623328 252.613190 754.917337
v 538.001074 266.044588 790.579069
v 501.843625 278.133183 790.579069
v 499.158589 291.564580 754.917340
v 499.158589 291.564580 729.483670
v 499.158589 291.564580 700.851208
v 499.158589 291.564580 671.721477
v 499.867180 280.852062 632.328073
v 499.867180 263.325709 632.328073
v 499.158589 252.613190 671.721477
v 499.158589 252.613190 700.851208
v 499.158589 252.613190 729.483670
v 499.158589 252.613190 754.917340
v 501.843625 266.044588 790.579069
v 568.447289 272.304109 623.722511
v 539.931306 272.446407 623.722511
v 499.867180 272.446407 623.722511
v 471.825127 272.334815 623.722511
v 470.136208 272.635451 671.721477
v 470.136208 272.635451 700.851208
v 470.136208 272.635451 729.483670
v 470.136208 272.635451 754.917337
v 476.535969 272.258512 797.861498
v 501.843625 272.335481 800.324366
v 538.001074 272.335481 800.324366
v 563.736447 272.237334 797.861498
v 570.136208 272.567210 754.917337
v 570.136208 266.523942 729.483670
v 570.136208 266.523942 700.851208
v 570.136208 272.567210 671.721477
v 568.447289 269.376577 632.328073
v 539.931306 267.583323 632.328073
v 499.867180 267.583323 632.328073
v 471.825127 268.989625 632.328073
v 470.136208 265.200949 671.721477
v 470.136208 265.200949 700.851208
v 470.136208 265.200949 729.483670
v 470.136208 265.200949 754.917337
v 476.535969 269.951214 790.579069
v 501.843625 268.981230 790.579069
v 538.001074 268.981230 790.579069
v 563.736447 270.218115 790.579069
v 570.136208 266.060933 754.917337
v 570.136208 266.060933 729.483670
v 570.136208 266.060933 700.851208
v 570.136208 266.060933 671.721477
v 568.447289 274.992739 632.328073
v 539.931306 276.912633 632.328073
v 499.867180 276.912633 632.328073
v 471.825127 275.407011 632.328073
v 470.136208 279.463251 671.721477
v 470.136208 279.463251 700.851208
v 470.136208 279.463251 729.483670
v 470.136208 279.463251 754.917337
v 476.535969 274.377528 790.579069
v 501.843625 275.416008 790.579069
v 538.001074 275.416008 790.579069
v 563.736447 274.091776 790.579069
v 570.136208 278.542533 754.917337
v 570.136208 267.585250 729.483670
v 570.136208 268.638896 700.851208
v 570.136208 278.542533 671.721477
vt 0.375000 0.000000
vt 0.625000 0.000000
vt 0.375000 0.250000
vt 0.625000 0.250000
vt 0.375000 0.500000
vt 0.625000 0.500000
vt 0.375000 0.750000
vt 0.625000 0.750000
vt 0.375000 1.000000
vt 0.625000 1.000000
vt 0.875000 0.000000
vt 0.875000 0.250000
vt 0.125000 0.000000
vt 0.125000 0.250000
vt 0.625000 0.437768
vt 0.812768 0.250000
vt 0.187232 0.250000
vt 0.375000 0.437768
vt 0.187232 0.000000
vt 0.375000 0.812232
vt 0.625000 0.812232
vt 0.812768 0.000000
vt 0.625000 0.391749
vt 0.766749 0.250000
vt 0.233251 0.250000
vt 0.375000 0.391749
vt 0.233251 0.000000
vt 0.375000 0.858251
vt 0.625000 0.858251
vt 0.766749 0.000000
vt 0.625000 0.346517
vt 0.721517 0.250000
vt 0.278483 0.250000
vt 0.375000 0.346517
vt 0.278483 0.000000
vt 0.375000 0.903483
vt 0.625000 0.903483
vt 0.721517 0.000000
vt 0.625000 0.306337
vt 0.681337 0.250000
vt 0.318663 0.250000
vt 0.375000 0.306337
vt 0.318663 0.000000
vt 0.375000 0.943663
vt 0.625000 0.943663
vt 0.681337 0.000000
vt 0.551218 0.250000
vt 0.551218 0.306337
vt 0.551218 0.346517
vt 0.551218 0.391749
vt 0.551218 0.437768
vt 0.551218 0.500000
vt 0.551218 0.750000
vt 0.551218 0.812232
vt 0.551218 0.858251
vt 0.551218 0.903483
vt 0.551218 0.943663
vt 0.551218 0.000000
vt 0.551218 1.000000
vt 0.447556 0.250000
vt 0.447556 0.306337
vt 0.447556 0.346517
vt 0.447556 0.391749
vt 0.447556 0.437768
vt 0.447556 0.500000
vt 0.447556 0.750000
vt 0.447556 0.812232
vt 0.447556 0.858251
vt 0.447556 0.903483
vt 0.447556 0.943663
vt 0.447556 0.000000
vt 0.447556 1.000000
vt 0.625000 0.619900
vt 0.875000 0.130100
vt 0.551218 0.619900
vt 0.447556 0.619900
vt 0.125000 0.130100
vt 0.375000 0.619900
vt 0.187232 0.130100
vt 0.233251 0.130100
vt 0.278483 0.130100
vt 0.318663 0.130100
vt 0.375000 0.130100
vt 0.447556 0.130100
vt 0.551218 0.130100
vt 0.625000 0.130100
vt 0.681337 0.130100
vt 0.721517 0.130100
vt 0.766749 0.130100
vt 0.812768 0.130100
vt 0.625000 0.689268
vt 0.875000 0.060732
vt 0.551218 0.689268
vt 0.447556 0.689268
vt 0.125000 0.060732
vt 0.375000 0.689268
vt 0.187232 0.060732
vt 0.233251 0.060732
vt 0.278483 0.060732
vt 0.318663 0.060732
vt 0.375000 0.060732
vt 0.447556 0.060732
vt 0.551218 0.060732
vt 0.625000 0.060732
vt 0.681337 0.060732
vt 0.721517 0.060732
vt 0.766749 0.060732
vt 0.812768 0.060732
vt 0.625000 0.556193
vt 0.875000 0.193807
vt 0.551218 0.556193
vt 0.447556 0.556193
vt 0.125000 0.193807
vt 0.375000 0.556193
vt 0.187232 0.193807
vt 0.233251 0.193807
vt 0.278483 0.193807
vt 0.318663 0.193807
vt 0.375000 0.193807
vt 0.447556 0.193807
vt 0.551218 0.193807
vt 0.625000 0.193807
vt 0.681337 0.193807
vt 0.721517 0.193807
vt 0.766749 0.193807
vt 0.812768 0.193807
vn -0.032387 0.877784 0.477961
vn -0.011604 0.857448 0.514440
vn -0.000000 0.000000 1.000000
vn -0.000000 0.000000 1.000000
vn -0.137633 0.938751 0.315917
vn -0.057276 0.939356 0.338126
vn -0.016600 0.993851 0.109471
vn -0.166545 0.967005 0.192781
vn 0.000000 0.000000 -1.000000
vn 0.000000 0.000000 -1.000000
vn -0.008219 0.727044 -0.686542
vn -0.022874 0.793255 -0.608460
vn -0.166545 -0.967005 0.192781
vn -0.067080 -0.979379 0.190568
vn -0.057276 -0.939356 0.338126
vn -0.137633 -0.938751 0.315917
vn 0.978419 0.116584 0.170600
vn 0.996269 0.029079 0.081251
vn 0.996035 0.000000 0.088959
vn 0.984276 0.000000 0.176636
vn -0.996141 0.025107 0.084098
vn -0.979862 0.103444 0.170790
vn -0.984276 0.000000 0.176636
vn -0.998426 0.000000 0.056089
vn -0.171829 0.975376 -0.138265
vn -0.018351 0.997484 -0.068481
vn -0.064627 0.966826 -0.247125
vn -0.148717 0.962827 -0.225492
vn -0.998835 0.025410 -0.041035
vn -0.999757 0.007303 -0.020797
vn -0.999877 0.000000 -0.015659
vn -0.999082 0.000000 -0.042834
vn -0.148717 -0.962827 -0.225492
vn -0.064627 -0.966826 -0.247125
vn -0.068417 -0.987878 -0.139339
vn -0.171829 -0.975376 -0.138265
vn 0.999724 0.000000 -0.023502
vn 0.999745 0.008677 -0.020864
vn 0.998743 0.028785 -0.041047
vn 0.999082 0.000000 -0.042834
vn -0.205006 0.978761 0.000000
vn 0.080680 0.993537 0.079846
vn -1.000000 0.000000 0.000000
vn -1.000000 0.000000 0.000000
vn -0.085922 -0.996302 0.000000
vn -0.205006 -0.978761 0.000000
vn 1.000000 0.000000 0.000000
vn 1.000000 0.000000 0.000000
vn -0.205006 0.978761 0.000000
vn 0.084385 0.992781 -0.085239
vn -1.000000 0.000000 0.000000
vn -1.000000 0.000000 0.000000
vn -0.085922 -0.996302 0.000000
vn -0.205006 -0.978761 0.000000
vn 1.000000 0.000000 0.000000
vn 1.000000 0.000000 0.000000
vn 0.073619 0.939938 0.333311
vn 0.172235 0.936839 0.304413
vn 0.160644 0.985807 -0.048769
vn 0.110804 0.992697 0.047697
vn 0.195393 0.968154 -0.156523
vn 0.071111 0.973759 -0.216186
vn 0.193531 0.969776 0.148594
vn 0.075409 0.976246 0.203119
vn 0.111577 0.993665 -0.013409
vn 0.166309 0.983958 0.064564
vn 0.082955 0.966673 -0.242203
vn 0.185726 0.958907 -0.214482
vn 0.010330 0.730866 -0.682443
vn 0.000000 0.000000 -1.000000
vn 0.000000 0.000000 -1.000000
vn 0.029377 0.812446 -0.582296
vn 0.085420 -0.987005 -0.136107
vn 0.082955 -0.966673 -0.242203
vn 0.185726 -0.958907 -0.214482
vn 0.213622 -0.967992 -0.131746
vn 0.108565 -0.994089 0.000000
vn 0.254033 -0.967196 0.000000
vn 0.108565 -0.994089 0.000000
vn 0.254033 -0.967196 0.000000
vn 0.083642 -0.978905 0.186409
vn 0.207066 -0.960420 0.186326
vn 0.073619 -0.939938 0.333311
vn 0.172235 -0.936839 0.304413
vn 0.000000 0.000000 1.000000
vn 0.013122 0.860523 0.509242
vn 0.036935 0.889935 0.454590
vn 0.000000 0.000000 1.000000
vn 0.007986 -0.703343 -0.710806
vn 0.027238 0.006206 -0.999610
vn 0.074684 -0.014937 -0.997095
vn 0.022803 -0.787741 -0.615584
vn -0.006344 -0.699164 -0.714933
vn -0.021084 0.004805 -0.999766
vn -0.056607 -0.011835 -0.998326
vn -0.017711 -0.767197 -0.641167
vn -0.998909 -0.022900 -0.040707
vn -0.999762 -0.006846 -0.020739
vn -0.999789 0.000276 -0.020525
vn -0.999194 -0.001515 -0.040108
vn -1.000000 0.000000 0.000000
vn -1.000000 0.000000 0.000000
vn -1.000000 0.000000 0.000000
vn -1.000000 0.000000 0.000000
vn -0.996198 -0.023686 0.083839
vn -0.996494 0.001441 0.083652
vn -0.981201 -0.093041 0.169081
vn -0.985647 -0.007774 0.168643
vn -0.029084 -0.859928 0.509585
vn -0.010413 -0.838314 0.545089
vn -0.040533 0.003919 0.999170
vn -0.110159 -0.009802 0.993866
vn 0.046483 0.005268 0.998905
vn 0.011532 -0.841772 0.539711
vn 0.128899 -0.012666 0.991577
vn 0.032514 -0.873451 0.485825
vn 0.980017 -0.104977 0.168956
vn 0.994835 -0.032468 0.096175
vn 0.994212 0.001851 0.107423
vn 0.985638 -0.008812 0.168642
vn 1.000000 0.000000 0.000000
vn 1.000000 0.000000 0.000000
vn 1.000000 0.000000 0.000000
vn 1.000000 0.000000 0.000000
vn 0.999683 0.000339 -0.025155
vn 0.999677 -0.009236 -0.023682
vn 0.999194 -0.001754 -0.040108
vn 0.998833 -0.025960 -0.040721
vn -0.000000 0.000000 -1.000000
vn -0.000000 0.000000 -1.000000
vn 0.000000 0.000000 -1.000000
vn 0.000000 0.000000 -1.000000
vn -0.999082 0.000000 -0.042834
vn -0.999877 0.000000 -0.015659
vn -1.000000 0.000000 0.000000
vn -1.000000 0.000000 0.000000
vn -0.998426 0.000000 0.056089
vn -0.984276 0.000000 0.176636
vn 0.000000 0.000000 1.000000
vn 0.000000 0.000000 1.000000
vn 0.000000 0.000000 1.000000
vn 0.000000 0.000000 1.000000
vn 0.984276 0.000000 0.176636
vn 0.998241 0.000000 0.059282
vn 1.000000 0.000000 0.000000
vn 1.000000 0.000000 0.000000
vn 0.999867 0.000000 -0.016320
vn 0.999082 0.000000 -0.042834
s 1
g pCube1
usemtl lambert2SG
f 89/119/1 90/120/2 37/60/3 3/3/4
s 2
f 3/3/5 37/60/6 38/61/7 22/42/8
s 3
f 5/5/9 42/65/10 83/112/11 84/114/12
s 4
f 23/44/13 47/70/14 48/72/15 1/9/16
s 5
f 92/122/17 93/123/18 21/40/19 4/4/20
s 6
f 88/118/21 89/119/22 3/3/23 22/41/24
s 2
f 10/18/25 41/64/26 42/65/27 5/5/28
s 6
f 84/113/29 85/115/30 10/17/31 5/14/32
s 4
f 7/7/33 43/66/34 44/67/35 11/20/36
s 5
f 9/16/37 96/126/38 81/110/39 6/12/40
s 2
f 14/26/41 40/63/42 41/64/26 10/18/25
s 6
f 85/115/30 86/116/43 14/25/44 10/17/31
s 4
f 11/20/36 44/67/35 45/68/45 15/28/46
s 5
f 13/24/47 95/125/48 96/126/38 9/16/37
s 2
f 18/34/49 39/62/50 40/63/42 14/26/41
s 6
f 86/116/43 87/117/51 18/33/52 14/25/44
s 4
f 15/28/46 45/68/45 46/69/53 19/36/54
s 5
f 17/32/55 94/124/56 95/125/48 13/24/47
s 2
f 22/42/8 38/61/7 39/62/50 18/34/49
s 6
f 87/117/51 88/118/21 22/41/24 18/33/52
s 4
f 19/36/54 46/69/53 47/70/14 23/44/13
s 5
f 21/40/19 93/123/18 94/124/56 17/32/55
s 2
f 25/47/57 4/4/58 21/39/59 26/48/60
f 27/49/61 26/48/60 21/39/59 17/31/62
f 28/50/63 27/49/61 17/31/62 13/23/64
f 29/51/65 28/50/63 13/23/64 9/15/66
f 30/52/67 29/51/65 9/15/66 6/6/68
s 3
f 82/111/69 30/52/70 6/6/71 81/109/72
s 4
f 32/54/73 31/53/74 8/8/75 12/21/76
f 33/55/77 32/54/73 12/21/76 16/29/78
f 34/56/79 33/55/77 16/29/78 20/37/80
f 35/57/81 34/56/79 20/37/80 24/45/82
f 36/59/83 35/57/81 24/45/82 2/10/84
s 1
f 25/47/85 91/121/86 92/122/87 4/4/88
s 2
f 37/60/6 25/47/57 26/48/60 38/61/7
f 39/62/50 38/61/7 26/48/60 27/49/61
f 40/63/42 39/62/50 27/49/61 28/50/63
f 41/64/26 40/63/42 28/50/63 29/51/65
f 42/65/27 41/64/26 29/51/65 30/52/67
s 3
f 83/112/11 42/65/10 30/52/70 82/111/69
s 4
f 44/67/35 43/66/34 31/53/74 32/54/73
f 45/68/45 44/67/35 32/54/73 33/55/77
f 46/69/53 45/68/45 33/55/77 34/56/79
f 47/70/14 46/69/53 34/56/79 35/57/81
f 48/72/15 47/70/14 35/57/81 36/59/83
s 1
f 37/60/3 90/120/2 91/121/86 25/47/85
s 3
f 66/93/89 50/75/90 49/73/91 65/91/92
f 67/94/93 51/76/94 50/75/90 66/93/89
f 52/78/95 51/76/94 67/94/93 68/96/96
s 6
f 68/95/97 69/97/98 53/79/99 52/77/100
f 69/97/98 70/98/101 54/80/102 53/79/99
f 70/98/101 71/99/103 55/81/104 54/80/102
f 71/99/103 72/100/105 56/82/106 55/81/104
f 72/100/105 73/101/107 57/83/108 56/82/106
s 1
f 73/101/109 74/102/110 58/84/111 57/83/112
f 59/85/113 58/84/111 74/102/110 75/103/114
f 60/86/115 59/85/113 75/103/114 76/104/116
s 5
f 76/104/117 77/105/118 61/87/119 60/86/120
f 62/88/121 61/87/119 77/105/118 78/106/122
f 63/89/123 62/88/121 78/106/122 79/107/124
f 64/90/125 63/89/123 79/107/124 80/108/126
f 49/74/127 64/90/125 80/108/126 65/92/128
s 3
f 31/53/129 66/93/89 65/91/92 8/8/130
f 43/66/131 67/94/93 66/93/89 31/53/129
f 68/96/96 67/94/93 43/66/131 7/7/132
s 6
f 7/13/133 11/19/134 69/97/98 68/95/97
f 11/19/134 15/27/135 70/98/101 69/97/98
f 15/27/135 19/35/136 71/99/103 70/98/101
f 19/35/136 23/43/137 72/100/105 71/99/103
f 23/43/137 1/1/138 73/101/107 72/100/105
s 1
f 1/1/139 48/71/140 74/102/110 73/101/109
f 75/103/114 74/102/110 48/71/140 36/58/141
f 76/104/116 75/103/114 36/58/141 2/2/142
s 5
f 2/2/143 24/46/144 77/105/118 76/104/117
f 78/106/122 77/105/118 24/46/144 20/38/145
f 79/107/124 78/106/122 20/38/145 16/30/146
f 80/108/126 79/107/124 16/30/146 12/22/147
f 65/92/128 80/108/126 12/22/147 8/11/148
s 3
f 50/75/90 82/111/69 81/109/72 49/73/91
f 51/76/94 83/112/11 82/111/69 50/75/90
f 84/114/12 83/112/11 51/76/94 52/78/95
s 6
f 52/77/100 53/79/99 85/115/30 84/113/29
f 53/79/99 54/80/102 86/116/43 85/115/30
f 54/80/102 55/81/104 87/117/51 86/116/43
f 55/81/104 56/82/106 88/118/21 87/117/51
f 56/82/106 57/83/108 89/119/22 88/118/21
s 1
f 57/83/112 58/84/111 90/120/2 89/119/1
f 91/121/86 90/120/2 58/84/111 59/85/113
f 92/122/87 91/121/86 59/85/113 60/86/115
s 5
f 60/86/120 61/87/119 93/123/18 92/122/17
f 94/124/56 93/123/18 61/87/119 62/88/121
f 95/125/48 94/124/56 62/88/121 63/89/123
f 96/126/38 95/125/48 63/89/123 64/90/125
f 81/110/39 96/126/38 64/90/125 49/74/127
