# This file uses meters as units for non-parametric coordinates.

mtllib tooth.mtl
g default
v 556.414953 333.216810 721.574883
v 562.521869 332.814048 722.447620
v 554.542264 352.893300 723.281430
v 564.542264 352.893300 723.281430
v 554.542264 352.893300 713.281430
v 564.542264 352.893300 713.281430
v 556.195934 333.216810 715.157705
v 562.572353 333.924421 715.162856
v 564.863519 352.893300 721.329942
v 554.221008 352.893300 721.329942
v 563.470908 352.893300 718.268558
v 555.613619 352.893300 718.268558
v 555.969536 348.021224 718.269724
v 563.114991 348.021224 718.269724
v 564.863519 352.893300 714.935887
v 554.221008 352.893300 714.935887
v 564.542264 350.103987 723.281430
v 554.542264 350.103987 723.281430
v 553.064932 350.103987 721.992250
v 553.064932 350.103987 718.260207
v 553.064932 350.103987 714.209047
v 554.542264 350.103987 713.281430
v 564.542264 350.103987 713.281430
v 566.019595 350.103987 714.209047
v 566.019595 350.103987 718.260207
v 566.019595 350.103987 721.992250
v 564.542264 346.980483 723.281430
v 554.542264 346.980483 723.281430
v 553.527588 346.980483 721.727198
v 553.527588 346.980483 718.261723
v 553.527588 346.980483 714.499925
v 554.542264 346.980483 713.281430
v 564.542264 346.980483 713.281430
v 565.556939 346.980483 714.499925
v 565.556939 346.980483 718.261723
v 565.556939 346.980483 721.727198
v 564.440543 344.310307 723.239450
v 554.542264 344.672928 723.281430
v 554.542264 344.672928 721.145896
v 554.542264 344.672928 718.265048
v 554.542264 344.672928 715.137865
v 554.542264 344.672928 713.281430
v 564.542264 344.672928 713.281430
v 564.542264 344.672928 715.137865
v 564.542264 344.672928 718.265048
v 564.542264 344.672928 721.145896
v 556.830679 352.893300 723.602685
v 556.994383 351.727465 721.145896
v 556.994383 351.727465 718.265047
v 556.994383 351.727465 715.137865
v 556.830679 352.893300 712.960174
v 556.241570 350.103987 711.804098
v 556.477328 346.980483 712.266754
v 556.994383 344.672928 713.281430
v 556.028568 342.893300 718.265048
v 556.994383 344.672928 723.281430
v 556.477328 346.980483 724.296105
v 556.241570 350.103987 724.758761
v 559.831268 352.893300 722.210074
v 559.910080 351.727465 721.145896
v 559.910080 347.274885 718.265047
v 559.910080 351.727465 715.137865
v 559.831268 352.893300 714.352785
v 560.018758 350.103987 711.804098
v 559.984723 346.980483 712.266754
v 559.910080 344.672928 713.281430
v 559.805085 348.021224 714.708702
v 558.712307 342.893300 715.647709
v 558.712307 342.893300 718.265048
v 558.712307 342.893300 721.145896
v 559.805085 348.021224 721.854157
v 559.910080 344.672928 723.281430
v 559.984723 346.980483 724.296105
v 560.018758 350.103987 724.758761
v 562.995899 352.893300 723.602685
v 562.787395 351.727465 721.145896
v 562.787395 351.727465 718.265047
v 562.787395 351.727465 715.137865
v 562.995899 352.893300 712.960174
v 563.746222 350.103987 711.804098
v 563.445946 346.980483 712.266754
v 562.787395 344.672928 713.281430
v 562.188269 342.893300 718.774892
v 563.445946 346.980483 724.296105
v 563.746222 350.103987 724.758761
v 563.098604 343.405858 723.601295
vt 0.377638 0.000000
vt 0.598770 0.022245
vt 0.375000 0.250000
vt 0.625000 0.250000
vt 0.375000 0.500000
vt 0.625000 0.500000
vt 0.390326 0.767404
vt 0.603064 0.773205
vt 0.592096 0.979979
vt 0.851795 0.000000
vt 0.875000 0.250000
vt 0.148205 0.000000
vt 0.125000 0.250000
vt 0.625000 0.303388
vt 0.678388 0.250000
vt 0.321612 0.250000
vt 0.375000 0.303388
vt 0.420977 0.973306
vt 0.625000 0.375410
vt 0.750410 0.250000
vt 0.249590 0.250000
vt 0.375000 0.375410
vt 0.249590 0.000000
vt 0.375000 0.874590
vt 0.625000 0.874590
vt 0.750410 0.000000
vt 0.625000 0.453589
vt 0.828589 0.250000
vt 0.171411 0.250000
vt 0.375000 0.453589
vt 0.625000 0.180267
vt 0.375000 0.180267
vt 0.321612 0.180267
vt 0.249590 0.180267
vt 0.171411 0.180267
vt 0.125000 0.180267
vt 0.375000 0.569733
vt 0.625000 0.569733
vt 0.875000 0.180267
vt 0.828589 0.180267
vt 0.750410 0.180267
vt 0.678388 0.180267
vt 0.625000 0.102180
vt 0.375000 0.102180
vt 0.321612 0.102180
vt 0.249590 0.102180
vt 0.171411 0.102180
vt 0.125000 0.102180
vt 0.375000 0.647820
vt 0.625000 0.647820
vt 0.875000 0.102180
vt 0.828589 0.102180
vt 0.750410 0.102180
vt 0.678388 0.102180
vt 0.625000 0.044491
vt 0.375000 0.044491
vt 0.321612 0.044491
vt 0.249590 0.044491
vt 0.171411 0.044491
vt 0.125000 0.044491
vt 0.375000 0.705509
vt 0.625000 0.705509
vt 0.875000 0.044491
vt 0.828589 0.044491
vt 0.750410 0.044491
vt 0.678388 0.044491
vt 0.436303 0.250000
vt 0.436303 0.303388
vt 0.436303 0.375410
vt 0.436303 0.453589
vt 0.436303 0.500000
vt 0.436303 0.569733
vt 0.436303 0.647820
vt 0.436303 0.705509
vt 0.436303 0.874591
vt 0.436303 0.044491
vt 0.436303 0.102180
vt 0.436303 0.180267
vt 0.509195 0.250000
vt 0.509195 0.303388
vt 0.509195 0.375410
vt 0.509195 0.453589
vt 0.509195 0.500000
vt 0.509195 0.569733
vt 0.509195 0.647820
vt 0.509195 0.705509
vt 0.509195 0.750000
vt 0.509195 0.796411
vt 0.509195 0.874590
vt 0.509195 0.946612
vt 0.509195 0.000000
vt 0.509195 1.000000
vt 0.509195 0.044491
vt 0.509195 0.102180
vt 0.509195 0.180267
vt 0.581128 0.250000
vt 0.581128 0.303388
vt 0.581128 0.375410
vt 0.581128 0.453589
vt 0.581128 0.500000
vt 0.581128 0.569733
vt 0.581128 0.647820
vt 0.581128 0.705509
vt 0.581128 0.874591
vt 0.581128 0.102180
vt 0.581128 0.180267
vt 0.587759 0.072134
vn 0.405585 -0.254516 0.877908
vn 0.258068 -0.294736 0.920071
vn -0.065089 -0.173625 0.982659
vn 0.223527 0.940297 -0.256665
vn 0.070084 0.914516 -0.398433
vn 0.357723 0.859363 -0.365418
vn 0.359639 0.929405 -0.082862
vn -0.064362 -0.183471 -0.980916
vn 0.269283 -0.311432 -0.911316
vn 0.414856 -0.276474 -0.866866
vn 0.827205 -0.308551 -0.469605
vn 0.891668 -0.340567 -0.298231
vn 0.979193 -0.186243 0.080596
vn -0.846591 -0.270775 -0.458218
vn -0.979909 -0.184917 0.074721
vn -0.912133 -0.304534 -0.274357
vn 0.562795 0.826597 -0.000055
vn 0.493368 0.869820 0.000784
vn -0.922322 -0.385075 -0.032232
vn -0.920079 -0.391645 -0.008233
vn -0.999290 -0.011536 0.035864
vn -0.217115 -0.973258 0.075029
vn 0.633579 -0.410515 -0.655786
vn 0.886579 -0.458786 -0.059105
vn 0.899785 -0.435832 -0.020894
vn 0.381649 0.849599 0.364040
vn 0.376538 0.922800 0.081606
vn -0.845932 -0.249894 0.471117
vn -0.921727 -0.289748 0.257810
vn 0.617669 -0.411611 0.670120
vn 0.817344 -0.292979 0.496097
vn 0.908283 -0.321413 0.267799
vn 0.060639 0.889859 0.452189
vn 0.221184 0.930442 0.292157
vn -0.980872 -0.173779 -0.087700
vn 0.975165 -0.201579 -0.091758
vn -0.493842 0.065599 0.867074
vn -0.145255 0.149091 0.978097
vn 0.003855 0.467238 0.884123
vn -0.400480 0.226298 0.887922
vn -0.975579 0.154202 0.156419
vn -0.811897 0.067089 0.579933
vn -0.850447 0.232278 0.472003
vn -0.878156 0.478329 -0.006554
vn -0.978195 0.207687 0.000124
vn -0.842410 0.538836 0.001005
vn -0.974358 0.162116 -0.156031
vn -0.868754 0.495183 0.007797
vn -0.734034 0.067952 -0.675705
vn -0.797072 0.237518 -0.555213
vn -0.400480 0.226298 -0.887922
vn 0.003855 0.467238 -0.884123
vn -0.145255 0.149091 -0.978097
vn -0.493842 0.065599 -0.867074
vn 0.868754 0.495183 0.007797
vn 0.974358 0.162116 -0.156031
vn 0.734034 0.067952 -0.675705
vn 0.797072 0.237518 -0.555213
vn 0.842410 0.538836 0.001005
vn 0.978195 0.207687 0.000124
vn 0.878156 0.478329 -0.006554
vn 0.975579 0.154202 0.156419
vn 0.811897 0.067089 0.579933
vn 0.850447 0.232278 0.472003
vn -0.421574 -0.150831 0.894162
vn -0.167521 -0.212133 0.962775
vn -0.959001 -0.217578 0.181595
vn -0.853836 -0.154852 0.496976
vn -0.967077 -0.254483 0.000000
vn -0.956990 -0.224487 -0.183782
vn -0.796083 -0.158223 -0.584139
vn -0.167521 -0.212133 -0.962775
vn -0.421574 -0.150831 -0.894162
vn 0.956990 -0.224487 -0.183782
vn 0.796083 -0.158223 -0.584139
vn 0.967077 -0.254483 0.000000
vn 0.958446 -0.218557 0.183341
vn 0.856665 -0.159991 0.490436
vn -0.003762 0.830551 -0.556930
vn 0.001535 0.806350 -0.591437
vn 0.001821 0.999933 0.011433
vn 0.001733 0.803806 0.594889
vn -0.004651 0.781320 0.624113
vn 0.005411 0.539011 -0.842281
vn -0.002878 0.207605 -0.978209
vn 0.000000 -0.254469 -0.967081
vn 0.002261 -0.413771 -0.910378
vn 0.063365 -0.423550 -0.903654
vn -0.216785 -0.130949 -0.967397
vn 0.028208 -0.987416 0.155607
vn 0.011366 -0.999495 0.029668
vn -0.043750 -0.962483 -0.267792
vn -0.343361 -0.056316 0.937513
vn 0.310605 -0.629596 0.712133
vn -0.220569 -0.411257 0.884431
vn -0.025096 -0.228983 0.973107
vn -0.002878 0.207605 0.978209
vn 0.005411 0.539011 0.842281
vn -0.078642 0.901540 -0.425489
vn -0.399931 0.827170 -0.394773
vn -0.625396 0.780307 -0.000081
vn -0.426502 0.814683 0.392921
vn -0.067866 0.873641 0.481815
vn -0.009389 0.493277 -0.869822
vn 0.168513 0.161986 -0.972298
vn 0.200327 -0.225502 -0.953424
vn -0.274503 -0.305561 -0.911746
vn -0.507809 -0.269029 -0.818385
vn -0.593929 -0.618822 0.514109
vn 0.167034 -0.975568 -0.142711
vn -0.629120 -0.581465 -0.515855
vn -0.279773 -0.148803 0.948464
vn 0.025241 -0.146474 0.988892
vn 0.182081 -0.187402 0.965260
vn 0.168513 0.161986 0.972298
vn -0.009389 0.493277 0.869822
vn -0.305163 0.918690 -0.250767
vn -0.487007 0.871343 -0.059879
vn -0.651342 0.758784 0.000807
vn -0.508375 0.859163 0.058252
vn -0.302108 0.909492 0.285579
vn 0.591346 0.239135 -0.770145
vn 0.715351 0.068003 -0.695449
vn 0.621702 -0.159184 -0.766907
vn 0.098039 -0.197084 -0.975472
vn 0.980899 -0.167531 0.098849
vn 0.451734 -0.130932 0.882493
vn 0.678387 -0.110061 0.726415
vn 0.715351 0.068003 0.695449
vn 0.591346 0.239135 0.770145
s 1
g pCube2
usemtl lambert2SG
f 1/1/1 56/76/2 38/56/3
s 2
f 3/3/4 47/67/5 48/68/6 10/17/7
s 3
f 42/61/8 54/74/9 7/7/10
s 4
f 2/2/11 46/66/12 37/55/13
s 5
f 1/1/14 38/56/15 39/57/16
s 2
f 10/17/7 48/68/6 49/69/17 12/22/18
s 5
f 13/23/19 1/1/14 39/57/16 40/58/20
s 6
f 13/24/21 55/75/22 1/18/23
s 4
f 46/66/12 2/2/11 14/26/24 45/65/25
s 2
f 12/22/18 49/69/17 50/70/26 16/30/27
s 5
f 7/12/28 13/23/19 40/58/20 41/59/29
s 6
f 7/7/30 55/75/22 13/24/21
s 4
f 45/65/25 14/26/24 8/10/31 44/64/32
s 2
f 16/30/27 50/70/26 51/71/33 5/5/34
s 5
f 7/12/28 41/59/29 42/60/35
s 4
f 44/64/32 8/10/31 43/63/36
s 1
f 18/32/37 58/78/38 47/67/39 3/3/40
s 5
f 19/33/41 18/32/42 3/3/43 10/16/44
f 20/34/45 19/33/41 10/16/44 12/21/46
f 21/35/47 20/34/45 12/21/46 16/29/48
f 22/36/49 21/35/47 16/29/48 5/13/50
s 3
f 5/5/51 51/71/52 52/72/53 22/37/54
s 4
f 15/28/55 24/40/56 23/39/57 6/11/58
f 11/20/59 25/41/60 24/40/56 15/28/55
f 9/15/61 26/42/62 25/41/60 11/20/59
f 17/31/63 26/42/62 9/15/61 4/4/64
s 1
f 28/44/65 57/77/66 58/78/38 18/32/37
s 5
f 29/45/67 28/44/68 18/32/42 19/33/41
f 30/46/69 29/45/67 19/33/41 20/34/45
f 31/47/70 30/46/69 20/34/45 21/35/47
f 32/48/71 31/47/70 21/35/47 22/36/49
s 3
f 22/37/54 52/72/53 53/73/72 32/49/73
s 4
f 24/40/56 34/52/74 33/51/75 23/39/57
f 25/41/60 35/53/76 34/52/74 24/40/56
f 26/42/62 36/54/77 35/53/76 25/41/60
f 27/43/78 36/54/77 26/42/62 17/31/63
s 1
f 38/56/3 56/76/2 57/77/66 28/44/65
s 5
f 39/57/16 38/56/15 28/44/68 29/45/67
f 40/58/20 39/57/16 29/45/67 30/46/69
f 41/59/29 40/58/20 30/46/69 31/47/70
f 42/60/35 41/59/29 31/47/70 32/48/71
s 3
f 32/49/73 53/73/72 54/74/9 42/61/8
s 4
f 34/52/74 44/64/32 43/63/36 33/51/75
f 35/53/76 45/65/25 44/64/32 34/52/74
f 36/54/77 46/66/12 45/65/25 35/53/76
f 37/55/13 46/66/12 36/54/77 27/43/78
s 2
f 47/67/5 59/79/79 60/80/80 48/68/6
f 49/69/17 48/68/6 60/80/80 61/81/81
f 50/70/26 49/69/17 61/81/81 62/82/82
f 51/71/33 50/70/26 62/82/82 63/83/83
s 3
f 52/72/53 51/71/52 63/83/84 64/84/85
f 53/73/72 52/72/53 64/84/85 65/85/86
f 54/74/9 53/73/72 65/85/86 66/86/87
f 7/7/10 54/74/9 66/86/87 67/87/88
s 6
f 7/7/30 67/87/89 68/88/90
f 55/75/22 7/7/30 68/88/90 69/89/91
f 1/18/23 55/75/22 69/89/91 70/90/92
f 1/18/23 70/90/92 71/92/93
s 1
f 56/76/2 1/1/1 71/91/94 72/93/95
f 57/77/66 56/76/2 72/93/95 73/94/96
f 58/78/38 57/77/66 73/94/96 74/95/97
f 47/67/39 58/78/38 74/95/97 59/79/98
s 2
f 59/79/79 75/96/99 76/97/100 60/80/80
f 61/81/81 60/80/80 76/97/100 77/98/101
f 62/82/82 61/81/81 77/98/101 78/99/102
f 63/83/83 62/82/82 78/99/102 79/100/103
s 3
f 64/84/85 63/83/84 79/100/104 80/101/105
f 65/85/86 64/84/85 80/101/105 81/102/106
f 66/86/87 65/85/86 81/102/106 82/103/107
f 67/87/88 66/86/87 82/103/107 8/8/108
s 6
f 68/88/90 67/87/89 8/8/109
f 69/89/91 68/88/90 8/8/109 83/104/110
f 70/90/92 69/89/91 83/104/110 2/9/111
f 71/92/93 70/90/92 2/9/111
s 1
f 72/93/95 71/91/94 2/2/112
f 73/94/96 72/93/95 86/107/113 84/105/114
f 74/95/97 73/94/96 84/105/114 85/106/115
f 59/79/98 74/95/97 85/106/115 75/96/116
s 2
f 75/96/99 4/4/117 9/14/118 76/97/100
f 77/98/101 76/97/100 9/14/118 11/19/119
f 78/99/102 77/98/101 11/19/119 15/27/120
f 79/100/103 78/99/102 15/27/120 6/6/121
s 3
f 80/101/105 79/100/104 6/6/122 23/38/123
f 81/102/106 80/101/105 23/38/123 33/50/124
f 82/103/107 81/102/106 33/50/124 43/62/125
f 8/8/108 82/103/107 43/62/125
s 6
f 83/104/110 8/8/109 14/25/126
f 2/9/111 83/104/110 14/25/126
s 1
f 37/55/127 86/107/113 2/2/112
f 85/106/115 84/105/114 27/43/128 17/31/129
f 75/96/116 85/106/115 17/31/129 4/4/130
f 86/107/113 72/93/95 2/2/112
f 84/105/114 86/107/113 37/55/127 27/43/128
