# This file uses centimeters as units for non-parametric coordinates.

mtllib Lightswitch.mtl
g default
v 0.555044 -0.204495 -3.712263
v 0.555044 0.399391 -3.712263
v 0.555044 -0.204495 -4.316150
v 0.555044 0.399391 -4.316150
v 0.671435 -0.045194 -4.316150
v 0.671435 -0.045194 -3.712263
v 0.677561 0.243400 -4.316150
v 0.677561 0.243400 -3.712263
v 0.372903 0.523950 -3.712263
v 0.372903 0.243400 -3.712263
v 0.372903 -0.045194 -3.712263
v 0.372903 -0.324971 -3.712263
v 0.372903 -0.324971 -4.316150
v 0.372903 -0.045194 -4.316150
v 0.372903 0.243400 -4.316150
v 0.372903 0.523950 -4.316150
v 1.237820 -0.004349 -4.230682
v 1.237820 -0.004349 -3.797731
v 1.242212 0.202556 -4.230682
v 1.242212 0.202556 -3.797731
vt 0.243259 0.099817
vt 0.243259 0.189691
vt 0.000000 0.189691
vt 0.000000 0.099817
vt 0.000000 0.899130
vt 0.243259 0.899130
vt 0.243259 1.000000
vt 0.000000 1.000000
vt 0.000000 -0.000000
vt 0.284068 0.051520
vt 0.243259 -0.000000
vt 0.000000 0.452362
vt 0.327022 0.087408
vt 0.243259 0.452362
vt 0.243259 0.546902
vt 0.244510 0.087408
vt 0.244510 0.000000
vt 0.000000 0.546902
vt 0.000000 0.808710
vt 0.741779 0.000000
vt 0.741779 0.087376
vt 0.659254 0.087376
vt 0.702105 0.051443
vt 0.243259 0.808710
vt 0.492512 0.143386
vt 0.492512 0.087408
vt 0.493678 0.087376
vt 0.493678 0.143357
vt 0.741779 0.143357
vt 0.659254 0.143357
vt 0.327022 0.143386
vt 0.244510 0.143386
vt 0.741779 0.238771
vt 0.707022 0.186288
vt 0.279136 0.186201
vt 0.244510 0.238892
vn 0.000000 0.000000 1.000000
vn 0.000000 0.000000 1.000000
vn 0.000000 0.000000 1.000000
vn 0.000000 0.000000 1.000000
vn 0.000000 0.000000 -1.000000
vn 0.000000 0.000000 -1.000000
vn 0.000000 0.000000 -1.000000
vn 0.000000 0.000000 -1.000000
vn 0.807442 -0.589946 0.000000
vn 0.807442 -0.589946 0.000000
vn 0.807442 -0.589946 0.000000
vn 0.807442 -0.589946 0.000000
vn 0.564489 0.825441 0.000000
vn 0.564489 0.825441 0.000000
vn 0.564489 0.825441 0.000000
vn 0.564489 0.825441 0.000000
vn 0.551680 -0.834056 0.000000
vn 0.551680 -0.834056 0.000000
vn 0.551680 -0.834056 0.000000
vn 0.551680 -0.834056 0.000000
vn 0.000000 0.000000 -1.000000
vn 0.000000 0.000000 -1.000000
vn 0.999775 -0.021222 0.000000
vn 0.999775 -0.021222 0.000000
vn 0.999775 -0.021222 0.000000
vn 0.999775 -0.021222 0.000000
vn 0.000000 0.000000 1.000000
vn 0.000000 0.000000 1.000000
vn 0.000000 0.000000 -1.000000
vn 0.000000 0.000000 -1.000000
vn 0.786433 0.617676 0.000000
vn 0.786433 0.617676 0.000000
vn 0.786433 0.617676 0.000000
vn 0.786433 0.617676 0.000000
vn 0.000000 0.000000 1.000000
vn 0.000000 0.000000 1.000000
vn 0.071928 -0.997410 0.000000
vn 0.071928 -0.997410 0.000000
vn 0.071928 -0.997410 0.000000
vn 0.071928 -0.997410 0.000000
vn 0.149434 -0.003172 -0.988767
vn 0.149434 -0.003172 -0.988767
vn 0.149434 -0.003172 -0.988767
vn 0.149434 -0.003172 -0.988767
vn 0.072147 0.997394 0.000000
vn 0.072147 0.997394 0.000000
vn 0.072147 0.997394 0.000000
vn 0.072147 0.997394 0.000000
vn 0.149434 -0.003172 0.988767
vn 0.149434 -0.003172 0.988767
vn 0.149434 -0.003172 0.988767
vn 0.149434 -0.003172 0.988767
s 1
g switch1 Lightswitch
usemtl aiStandardSurface1SG
f 1/10/1 6/13/2 11/16/3 12/17/4
s 2
f 13/20/5 14/21/6 5/22/7 3/23/8
s off
f 3/1/9 5/2/10 6/3/11 1/4/12
f 2/5/13 4/6/14 16/7/15 9/8/16
f 3/1/17 1/4/18 12/9/19 13/11/20
s 2
f 5/22/7 14/21/6 15/29/21 7/30/22
s off
f 18/12/23 17/14/24 19/15/25 20/18/26
s 1
f 11/16/3 6/13/2 8/31/27 10/32/28
s 2
f 7/30/22 15/29/21 16/33/29 4/34/30
s off
f 8/19/31 7/24/32 4/6/33 2/5/34
s 1
f 10/32/28 8/31/27 2/35/35 9/36/36
s off
f 6/3/37 5/2/38 17/14/39 18/12/40
f 5/22/41 7/30/42 19/28/43 17/27/44
f 7/24/45 8/19/46 20/18/47 19/15/48
f 8/31/49 6/13/50 18/26/51 20/25/52
g default
v 0.138520 -1.982502 -2.764143
v 0.391373 -1.612533 -2.997603
v 0.138520 1.982502 -2.764143
v 0.391373 1.612533 -2.997603
v 0.138520 1.982502 -5.266156
v 0.391373 1.612533 -5.032697
v 0.138520 -1.982502 -5.266156
v 0.391373 -1.612533 -5.032697
vt 0.000610 0.000000
vt 0.090740 0.110218
vt 0.091445 0.890425
vt 0.000000 0.999536
vt 0.651028 0.889780
vt 0.741158 1.000000
vt 0.650323 0.109575
vt 0.741768 0.000463
vn 0.678369 0.000000 0.734721
vn 0.678369 0.000000 0.734721
vn 0.678369 0.000000 0.734721
vn 0.678369 0.000000 0.734721
vn 0.825602 0.564253 0.000000
vn 0.825602 0.564253 0.000000
vn 0.825602 0.564253 0.000000
vn 0.825602 0.564253 0.000000
vn 0.678368 0.000000 -0.734723
vn 0.678368 0.000000 -0.734723
vn 0.678368 0.000000 -0.734723
vn 0.678368 0.000000 -0.734723
vn 0.825602 -0.564253 0.000000
vn 0.825602 -0.564253 0.000000
vn 0.825602 -0.564253 0.000000
vn 0.825602 -0.564253 0.000000
vn 1.000000 0.000000 0.000000
vn 1.000000 0.000000 0.000000
vn 1.000000 0.000000 0.000000
vn 1.000000 0.000000 0.000000
s off
g Lightswitch base
usemtl initialShadingGroup
f 21/37/53 22/38/54 24/39/55 23/40/56
f 23/40/57 24/39/58 26/41/59 25/42/60
f 25/42/61 26/41/62 28/43/63 27/44/64
f 27/44/65 28/43/66 22/38/67 21/37/68
f 22/38/69 28/43/70 26/41/71 24/39/72
