# This file uses inches as units for non-parametric coordinates.

mtllib Box.mtl
g default
v -11.785901 1.619503 11.785901
v 11.785901 1.619503 11.785901
v 11.785901 25.191304 11.785901
v -11.785901 25.191304 11.785901
v 11.785901 25.191304 -11.785901
v -11.785901 25.191304 -11.785901
v 11.785901 1.619503 -11.785901
v -11.785901 1.619503 -11.785901
v -13.410430 -0.005027 13.410430
v 13.410430 -0.005027 13.410430
v 13.192785 25.191304 13.192785
v -13.192785 25.191304 13.192785
v -13.192785 25.191304 -13.192785
v 13.192785 25.191304 -13.192785
v 13.410430 -0.005027 -13.410430
v -13.410430 -0.005027 -13.410430
vt 0.375000 0.000000
vt 0.625000 0.000000
vt 0.625000 0.250000
vt 0.375000 0.250000
vt 0.625000 0.500000
vt 0.375000 0.500000
vt 0.625000 0.750000
vt 0.375000 0.750000
vt 0.625000 1.000000
vt 0.375000 1.000000
vt 0.875000 0.000000
vt 0.875000 0.250000
vt 0.125000 0.000000
vt 0.125000 0.250000
vt 0.375000 0.000000
vt 0.625000 0.000000
vt 0.625000 0.250000
vt 0.375000 0.250000
vt 0.375000 0.500000
vt 0.625000 0.500000
vt 0.625000 0.750000
vt 0.375000 0.750000
vt 0.625000 1.000000
vt 0.375000 1.000000
vt 0.875000 0.000000
vt 0.875000 0.250000
vt 0.125000 0.000000
vt 0.125000 0.250000
vt 0.625000 0.250000
vt 0.375000 0.250000
vt 0.375000 0.500000
vt 0.625000 0.500000
vt 0.875000 0.250000
vt 0.125000 0.250000
vn 0.000000 0.008638 0.999963
vn 0.000000 0.008638 0.999963
vn 0.000000 0.008638 0.999963
vn 0.000000 0.008638 0.999963
vn 0.000000 0.008638 -0.999963
vn 0.000000 0.008638 -0.999963
vn 0.000000 0.008638 -0.999963
vn 0.000000 0.008638 -0.999963
vn 0.000000 -1.000000 0.000000
vn 0.000000 -1.000000 0.000000
vn 0.000000 -1.000000 0.000000
vn 0.000000 -1.000000 0.000000
vn 0.999963 0.008638 0.000000
vn 0.999963 0.008638 0.000000
vn 0.999963 0.008638 0.000000
vn 0.999963 0.008638 0.000000
vn -0.999963 0.008638 0.000000
vn -0.999963 0.008638 0.000000
vn -0.999963 0.008638 0.000000
vn -0.999963 0.008638 0.000000
vn 0.000000 0.000000 -1.000000
vn 0.000000 0.000000 -1.000000
vn 0.000000 0.000000 -1.000000
vn 0.000000 0.000000 -1.000000
vn 0.000000 0.000000 1.000000
vn 0.000000 0.000000 1.000000
vn 0.000000 0.000000 1.000000
vn 0.000000 0.000000 1.000000
vn 0.000000 1.000000 0.000000
vn 0.000000 1.000000 0.000000
vn 0.000000 1.000000 0.000000
vn 0.000000 1.000000 0.000000
vn -1.000000 0.000000 0.000000
vn -1.000000 0.000000 0.000000
vn -1.000000 0.000000 0.000000
vn -1.000000 0.000000 0.000000
vn 1.000000 0.000000 0.000000
vn 1.000000 0.000000 0.000000
vn 1.000000 0.000000 0.000000
vn 1.000000 0.000000 0.000000
vn 0.000000 1.000000 0.000000
vn 0.000000 1.000000 0.000000
vn 0.000000 1.000000 0.000000
vn 0.000000 1.000000 0.000000
vn 0.000000 1.000000 -0.000000
vn 0.000000 1.000000 -0.000000
vn 0.000000 1.000000 -0.000000
vn 0.000000 1.000000 -0.000000
s off
g box pCube1
usemtl initialShadingGroup
f 9/1/1 10/2/2 11/29/3 12/30/4
f 13/31/5 14/32/6 15/7/7 16/8/8
f 16/8/9 15/7/10 10/9/11 9/10/12
f 10/2/13 15/11/14 14/33/15 11/29/16
f 16/13/17 9/1/18 12/30/19 13/34/20
f 1/15/21 4/18/22 3/17/23 2/16/24
f 6/19/25 8/22/26 7/21/27 5/20/28
f 8/22/29 1/24/30 2/23/31 7/21/32
f 2/16/33 3/17/34 5/26/35 7/25/36
f 8/27/37 6/28/38 4/18/39 1/15/40
s 1
f 3/3/41 4/4/42 12/30/43 11/29/44
f 6/6/45 5/5/46 14/32/47 13/31/48
f 5/12/46 3/3/41 11/29/44 14/33/47
f 4/4/42 6/14/45 13/34/48 12/30/43
