# This file uses feet as units for non-parametric coordinates.

mtllib Dresser_drawer.mtl
g default
v -54.454802 30.145771 63.550888
v 66.465202 30.145771 63.550888
v -54.454802 63.725637 63.550888
v 66.465202 63.725637 63.550888
v -54.454802 63.725637 -119.873024
v 66.465202 63.725637 -119.873024
v -54.454802 30.145771 -119.873024
v 66.465202 30.145771 -119.873024
v 66.465202 26.787785 -138.215397
v 66.465202 26.787785 81.893296
v 66.465202 67.083624 -138.215397
v 66.465202 67.083624 81.893296
v 68.563164 26.787785 -138.215397
v 68.563164 26.787785 81.893296
v 68.563164 67.083624 -138.215397
v 68.563164 67.083624 81.893296
v -49.416473 63.725637 55.908222
v 61.426895 63.725637 55.908222
v 61.426895 63.725637 -112.230381
v -49.416473 63.725637 -112.230381
v -49.416473 33.118735 55.908222
v 61.426895 33.118735 55.908222
v 61.426895 33.118735 -112.230381
v -49.416473 33.118735 -112.230381
v 68.563164 44.064622 -32.024308
v 68.563164 44.064622 -24.297851
v 68.563164 49.806780 -32.024308
v 68.563164 49.806780 -24.297851
v 71.020534 44.064622 -32.024308
v 71.020534 44.064622 -24.297851
v 71.020534 49.806780 -32.024308
v 71.020534 49.806780 -24.297851
v 73.273161 43.155453 -33.247647
v 73.273161 43.155453 -23.074489
v 73.273161 50.715962 -33.247647
v 73.273161 50.715962 -23.074489
v 75.532614 44.793565 -31.043456
v 75.532614 44.793565 -25.278657
v 75.532614 49.077842 -31.043456
v 75.532614 49.077842 -25.278657
v 76.281487 45.686117 -29.842453
v 76.281487 45.686117 -26.479637
v 76.281487 48.185281 -29.842453
v 76.281487 48.185281 -26.479637
vt 0.767631 0.768665
vt 0.771966 0.768665
vt 0.771966 0.786262
vt 0.767631 0.786262
vt 0.766083 0.762380
vt 0.773514 0.762380
vt 0.773514 0.792547
vt 0.766083 0.792547
vt 0.763241 0.750845
vt 0.776356 0.750845
vt 0.776356 0.804082
vt 0.763241 0.804082
vt 0.518971 0.289664
vt 0.755422 0.289664
vt 0.755422 0.526115
vt 0.518971 0.526115
vt 0.262088 0.025576
vt 0.025637 0.025576
vt 0.001992 0.001931
vt 0.285733 0.001931
vt 0.025637 0.262028
vt 0.001992 0.285673
vt 0.262088 0.262028
vt 0.285733 0.285673
vt 0.664014 0.530107
vt 0.664014 0.746854
vt 0.448497 0.746854
vt 0.448497 0.530107
vt 0.998008 0.750845
vt 0.998008 0.967592
vt 0.782491 0.967592
vt 0.782491 0.750845
vt 0.304275 0.001931
vt 0.588016 0.001931
vt 0.451125 0.123585
vt 0.441165 0.123585
vt 0.588016 0.285673
vt 0.451125 0.164019
vt 0.304275 0.285673
vt 0.441165 0.164019
vt 0.001992 0.530107
vt 0.218739 0.530107
vt 0.218739 0.746854
vt 0.001992 0.746854
vt 0.276384 0.289664
vt 0.512835 0.289664
vt 0.512835 0.526115
vt 0.276384 0.526115
vt 0.594668 0.285673
vt 0.594668 0.001931
vt 0.598771 0.001931
vt 0.598771 0.285673
vt 0.618056 0.285673
vt 0.618056 0.001931
vt 0.622158 0.001931
vt 0.622158 0.285673
vt 0.033798 0.289664
vt 0.270249 0.289664
vt 0.260397 0.299516
vt 0.043650 0.299516
vt 0.270249 0.526115
vt 0.260397 0.516263
vt 0.033798 0.526115
vt 0.043650 0.516263
vt 0.717205 0.762382
vt 0.717205 0.752422
vt 0.722010 0.752422
vt 0.722010 0.762382
vt 0.726415 0.750845
vt 0.726415 0.763959
vt 0.701860 0.762382
vt 0.701860 0.752422
vt 0.706665 0.752422
vt 0.706665 0.762382
vt 0.711070 0.750845
vt 0.711070 0.763959
vt 0.629750 0.001931
vt 0.866201 0.001931
vt 0.866201 0.238382
vt 0.629750 0.238382
vt 0.761557 0.242374
vt 0.998008 0.242374
vt 0.998008 0.478825
vt 0.761557 0.478825
vt 0.606362 0.285673
vt 0.606362 0.001931
vt 0.610465 0.001931
vt 0.610465 0.285673
vt 0.292581 0.285673
vt 0.292581 0.001931
vt 0.296683 0.001931
vt 0.296683 0.285673
vt 0.226316 0.746854
vt 0.226316 0.530107
vt 0.441834 0.530107
vt 0.441834 0.746854
vt 0.886195 0.530107
vt 0.886195 0.746854
vt 0.670678 0.746854
vt 0.670678 0.530107
vt 0.747896 0.797680
vt 0.747896 0.757247
vt 0.752701 0.757247
vt 0.752701 0.797680
vt 0.757106 0.750845
vt 0.757106 0.804082
vt 0.732551 0.797680
vt 0.732551 0.757247
vt 0.737356 0.757247
vt 0.737356 0.797680
vt 0.741761 0.750845
vt 0.741761 0.804082
vn 0.000000 0.000000 1.000000
vn 0.000000 0.000000 1.000000
vn 0.000000 0.000000 1.000000
vn 0.000000 0.000000 1.000000
vn 0.000000 1.000000 0.000000
vn 0.000000 1.000000 0.000000
vn 0.000000 1.000000 0.000000
vn 0.000000 1.000000 0.000000
vn 0.000000 0.000000 -1.000000
vn 0.000000 0.000000 -1.000000
vn 0.000000 0.000000 -1.000000
vn 0.000000 0.000000 -1.000000
vn 0.000000 -1.000000 0.000000
vn 0.000000 -1.000000 0.000000
vn 0.000000 -1.000000 0.000000
vn 0.000000 -1.000000 0.000000
vn 1.000000 0.000000 0.000000
vn 1.000000 0.000000 0.000000
vn 1.000000 0.000000 0.000000
vn 1.000000 0.000000 0.000000
vn -1.000000 0.000000 0.000000
vn -1.000000 0.000000 0.000000
vn -1.000000 0.000000 0.000000
vn -1.000000 0.000000 0.000000
vn -1.000000 -0.000001 0.000000
vn -1.000000 -0.000001 0.000000
vn -1.000000 -0.000001 0.000000
vn -1.000000 -0.000001 0.000000
vn -1.000000 0.000001 0.000000
vn -1.000000 0.000001 0.000000
vn -1.000000 0.000001 0.000000
vn -1.000000 0.000001 0.000000
vn 0.000000 -1.000000 0.000000
vn 0.000000 -1.000000 0.000000
vn 0.000000 -1.000000 0.000000
vn 0.000000 -1.000000 0.000000
vn 0.000000 0.000000 -1.000000
vn 0.000000 0.000000 -1.000000
vn 0.000000 0.000000 -1.000000
vn 0.000000 0.000000 -1.000000
vn 0.000000 1.000000 0.000000
vn 0.000000 1.000000 0.000000
vn 0.000000 1.000000 0.000000
vn 0.000000 1.000000 0.000000
vn 0.000000 0.000000 1.000000
vn 0.000000 0.000000 1.000000
vn 0.000000 0.000000 1.000000
vn 0.000000 0.000000 1.000000
vn 0.000000 1.000000 -0.000000
vn 0.000000 1.000000 -0.000000
vn 0.000000 1.000000 -0.000000
vn 0.000000 1.000000 -0.000000
vn 0.000000 1.000000 0.000000
vn 0.000000 1.000000 0.000000
vn 0.000000 1.000000 0.000000
vn 0.000000 1.000000 0.000000
vn 0.000000 0.000000 -1.000000
vn 0.000000 0.000000 -1.000000
vn 0.000000 0.000000 -1.000000
vn 0.000000 0.000000 -1.000000
vn -1.000000 0.000000 0.000000
vn -1.000000 0.000000 0.000000
vn -1.000000 0.000000 0.000000
vn -1.000000 0.000000 0.000000
vn 0.000000 0.000000 1.000000
vn 0.000000 0.000000 1.000000
vn 0.000000 0.000000 1.000000
vn 0.000000 0.000000 1.000000
vn 1.000000 0.000000 0.000000
vn 1.000000 0.000000 0.000000
vn 1.000000 0.000000 0.000000
vn 1.000000 0.000000 0.000000
vn 1.000000 0.000000 0.000000
vn 1.000000 0.000000 0.000000
vn 1.000000 0.000000 0.000000
vn 1.000000 0.000000 0.000000
vn 1.000000 -0.000000 0.000000
vn 1.000000 -0.000000 0.000000
vn 1.000000 -0.000000 0.000000
vn 1.000000 -0.000000 0.000000
vn 0.000000 -1.000000 0.000000
vn 0.000000 -1.000000 0.000000
vn -0.214779 -0.976663 0.000000
vn -0.214779 -0.976663 0.000000
vn 0.000000 0.000000 -1.000000
vn 0.000000 0.000000 -1.000000
vn -0.323355 0.000000 -0.946278
vn -0.323355 0.000000 -0.946278
vn 0.000000 1.000000 0.000000
vn 0.000000 1.000000 0.000000
vn -0.214782 0.976662 0.000000
vn -0.214782 0.976662 0.000000
vn 0.000000 0.000000 1.000000
vn 0.000000 0.000000 1.000000
vn -0.323360 0.000000 0.946276
vn -0.323361 0.000000 0.946276
vn -0.374270 -0.927320 0.000000
vn -0.374270 -0.927320 0.000000
vn -0.477238 0.000000 -0.878774
vn -0.477238 0.000000 -0.878774
vn -0.374275 0.927318 0.000000
vn -0.374275 0.927318 0.000000
vn -0.477245 0.000000 0.878770
vn -0.477245 0.000000 0.878770
vn 0.586969 -0.809609 0.000000
vn 0.586970 -0.809609 0.000000
vn 0.616361 -0.787464 0.000000
vn 0.616361 -0.787464 0.000000
vn 0.698299 0.000000 -0.715806
vn 0.698299 0.000000 -0.715806
vn 0.703395 0.000000 -0.710799
vn 0.703395 0.000000 -0.710799
vn 0.586972 0.809607 0.000000
vn 0.586972 0.809607 0.000000
vn 0.616364 0.787462 0.000000
vn 0.616364 0.787462 0.000000
vn 0.698295 0.000000 0.715810
vn 0.698295 0.000000 0.715810
vn 0.703391 0.000000 0.710803
vn 0.703391 0.000000 0.710803
vn 0.766074 -0.642752 0.000000
vn 0.766074 -0.642752 0.000000
vn 0.848555 0.000000 -0.529108
vn 0.848555 0.000000 -0.529108
vn 0.766076 0.642750 0.000000
vn 0.766076 0.642750 0.000000
vn 0.848550 0.000000 0.529115
vn 0.848550 0.000000 0.529115
s off
g Drawer1
usemtl initialShadingGroup
f 1/77/1 2/78/2 4/79/3 3/80/4
f 21/41/5 22/42/6 23/43/7 24/44/8
f 5/81/9 6/82/10 8/83/11 7/84/12
f 7/45/13 8/46/14 2/47/15 1/48/16
f 42/1/17 41/2/18 43/3/19 44/4/20
f 7/13/21 1/14/22 3/15/23 5/16/24
s 1
f 2/17/25 8/18/26 9/19/27 10/20/28
f 8/18/26 6/21/29 11/22/30 9/19/27
f 6/21/29 4/23/31 12/24/32 11/22/30
f 4/23/31 2/17/25 10/20/28 12/24/32
s off
f 10/49/33 9/50/34 13/51/35 14/52/36
f 9/85/37 11/86/38 15/87/39 13/88/40
f 11/53/41 12/54/42 16/55/43 15/56/44
f 12/89/45 10/90/46 14/91/47 16/92/48
s 2
f 3/57/49 4/58/50 18/59/51 17/60/52
f 4/58/50 6/61/53 19/62/54 18/59/51
f 6/61/53 5/63/55 20/64/56 19/62/54
f 5/63/55 3/57/49 17/60/52 20/64/56
s off
f 17/93/57 18/94/58 22/95/59 21/96/60
f 18/25/61 19/26/62 23/27/63 22/28/64
f 19/97/65 20/98/66 24/99/67 23/100/68
f 20/29/69 17/30/70 21/31/71 24/32/72
s 3
f 14/33/73 13/34/74 25/35/75 26/36/76
f 13/34/74 15/37/77 27/38/78 25/35/75
f 15/37/77 16/39/79 28/40/80 27/38/78
f 16/39/79 14/33/73 26/36/76 28/40/80
s 4
f 26/65/81 25/66/82 29/67/83 30/68/84
s 5
f 25/101/85 27/102/86 31/103/87 29/104/88
s 6
f 27/71/89 28/72/90 32/73/91 31/74/92
s 7
f 28/107/93 26/108/94 30/109/95 32/110/96
s 4
f 30/68/84 29/67/83 33/69/97 34/70/98
s 5
f 29/104/88 31/103/87 35/105/99 33/106/100
s 6
f 31/74/92 32/73/91 36/75/101 35/76/102
s 7
f 32/110/96 30/109/95 34/111/103 36/112/104
s 8
f 34/9/105 33/10/106 37/6/107 38/5/108
s 9
f 33/10/109 35/11/110 39/7/111 37/6/112
s 10
f 35/11/113 36/12/114 40/8/115 39/7/116
s 11
f 36/12/117 34/9/118 38/5/119 40/8/120
s 8
f 38/5/108 37/6/107 41/2/121 42/1/122
s 9
f 37/6/112 39/7/111 43/3/123 41/2/124
s 10
f 39/7/116 40/8/115 44/4/125 43/3/126
s 11
f 40/8/120 38/5/119 42/1/127 44/4/128
