# This file uses centimeters as units for non-parametric coordinates.

mtllib rock.mtl
g default
v -8.620000 -8.391800 5.900800
v -7.742900 -6.932900 9.667800
v -12.001800 -5.684900 8.269600
v -13.912900 -6.788300 5.326000
v -0.770600 -9.062700 6.103300
v -0.952600 -7.563800 10.108600
v 7.126400 -8.226800 5.227700
v 5.925700 -6.936000 9.015000
v 12.815100 -7.096000 4.510400
v 10.508900 -6.182800 7.515100
v -9.409100 -9.062500 0.250800
v -14.905000 -7.137100 0.316900
v -0.781300 -9.612000 0.116200
v 8.077700 -8.685500 -0.108000
v 14.314600 -7.433500 -0.286400
v -9.243100 -8.432000 -5.456500
v -14.431400 -6.827000 -4.742700
v -1.122900 -8.931200 -5.920600
v 7.482700 -8.332200 -5.563900
v 13.620200 -6.681400 -4.976800
v -8.792800 -6.906700 -9.330300
v -12.988000 -5.795800 -7.926300
v -1.589800 -7.135200 -9.795800
v 6.335100 -6.883400 -9.321000
v 11.771600 -6.074400 -8.167900
v -8.486300 7.585500 5.645000
v -13.737800 5.758600 5.107600
v -11.935100 4.683400 8.036000
v -7.594900 5.670000 9.115900
v -0.777300 8.572600 5.945400
v -0.933700 6.240500 9.499500
v 7.097900 7.762800 5.144300
v 5.780900 5.977800 8.692400
v 12.545000 6.065100 4.261500
v 10.372500 5.124200 7.244300
v -9.392900 8.842200 0.260200
v -14.793400 6.432400 0.321400
v -0.775400 9.612000 0.088000
v 8.087700 8.710400 -0.088000
v 14.221300 6.648500 -0.249800
v -9.221100 8.173700 -5.462100
v -14.320600 6.026800 -4.727700
v -1.100400 8.622000 -5.791700
v 7.482800 8.045300 -5.533000
v 13.520400 6.068200 -4.977000
v -8.819300 6.291200 -9.289500
v -13.218900 5.521800 -8.206800
v -1.536400 6.422400 -9.702800
v 6.316700 6.241800 -9.304600
v 11.729100 5.303000 -8.061000
v -8.510200 -4.249200 11.794700
v -13.620700 -3.537500 9.471800
v -1.176300 -4.658700 12.271900
v 6.255400 -4.398200 10.907800
v 11.683900 -3.823500 8.164300
v -8.947600 -0.735200 11.848400
v -14.491200 -0.554700 9.807900
v -1.288400 -0.544300 13.641200
v 6.626900 -0.432900 11.752500
v 12.525200 -0.368800 8.947600
v -8.319500 2.980700 10.900700
v -13.474500 2.588200 9.122900
v -1.161000 3.420600 11.967200
v 6.255600 3.458600 10.804800
v 11.946400 3.215500 8.578600
v 15.943200 -4.467900 4.848700
v 17.739700 -4.368300 -0.487200
v 17.313200 -4.381300 -5.611000
v 13.584900 -3.787300 -9.149600
v 16.694599 -0.468600 4.760100
v 19.326000 -0.734200 -0.575300
v 18.355801 -0.389800 -5.687100
v 14.570500 -0.345000 -9.795500
v 15.523100 3.286900 4.495100
v 17.643101 3.388200 -0.437200
v 17.097200 3.165400 -5.540200
v 13.658400 3.075700 -9.260100
v 6.987500 -4.278300 -11.481900
v -1.930500 -4.549600 -12.330000
v -9.894400 -4.432800 -11.717400
v -14.580000 -3.676700 -9.079900
v 7.538800 -0.486200 -12.308100
v -2.056200 -0.546000 -13.641200
v -10.439300 -0.459100 -12.205300
v -15.187600 -0.472900 -9.575800
v 7.055700 3.438700 -11.526500
v -1.895900 3.663900 -12.489300
v -9.819300 3.428400 -11.487800
v -14.517400 3.063300 -9.122400
v -17.289600 -4.184400 -5.227100
v -18.306999 -4.497500 0.318900
v -17.113501 -4.261900 5.954500
v -18.565599 -0.446300 -5.640600
v -19.326000 -0.539900 0.297700
v -17.655100 -0.666800 5.966900
v -17.294600 3.377400 -5.214000
v -18.333000 3.597200 0.320400
v -16.400299 2.983900 5.493100
vt 0.188000 0.573600
vt 0.193500 0.622000
vt 0.122100 0.623300
vt 0.101400 0.573200
vt 0.315900 0.589400
vt 0.290500 0.632900
vt 0.438200 0.624100
vt 0.387100 0.654900
vt 0.514000 0.663600
vt 0.459100 0.683900
vt 0.184800 0.446100
vt 0.141900 0.499800
vt 0.082900 0.425100
vt 0.119100 0.388100
vt 0.315400 0.512000
vt 0.259600 0.571200
vt 0.461500 0.550000
vt 0.397000 0.606400
vt 0.557700 0.560800
vt 0.497300 0.609800
vt 0.240200 0.390500
vt 0.171000 0.350700
vt 0.362500 0.441300
vt 0.493800 0.479400
vt 0.582700 0.494500
vt 0.283200 0.352200
vt 0.221600 0.321800
vt 0.384000 0.388200
vt 0.488800 0.416400
vt 0.568900 0.433400
vt 0.140700 0.902900
vt 0.061800 0.891300
vt 0.093100 0.845300
vt 0.159400 0.850800
vt 0.257200 0.915100
vt 0.248600 0.859300
vt 0.376800 0.917600
vt 0.342800 0.866600
vt 0.453800 0.909300
vt 0.413600 0.867700
vt 0.128100 0.976300
vt 0.049900 0.956200
vt 0.264300 0.994800
vt 0.406900 0.988200
vt 0.495800 0.964400
vt 0.315200 0.063300
vt 0.240700 0.073600
vt 0.195800 0.029800
vt 0.293500 0.001400
vt 0.452400 0.085300
vt 0.452600 0.012100
vt 0.583200 0.133000
vt 0.604000 0.072700
vt 0.674000 0.183100
vt 0.688700 0.121000
vt 0.337900 0.115300
vt 0.266400 0.116600
vt 0.445200 0.138700
vt 0.558800 0.182200
vt 0.631300 0.213200
vt 0.158500 0.666900
vt 0.081700 0.663600
vt 0.269800 0.674700
vt 0.380600 0.698700
vt 0.460600 0.723300
vt 0.133900 0.728200
vt 0.055500 0.726600
vt 0.248700 0.736500
vt 0.368800 0.758600
vt 0.449900 0.776500
vt 0.138100 0.797200
vt 0.062100 0.794700
vt 0.244100 0.805800
vt 0.354300 0.819800
vt 0.433200 0.828400
vt 0.540000 0.724400
vt 0.641800 0.724300
vt 0.583300 0.657800
vt 0.655300 0.466400
vt 0.635400 0.551500
vt 0.621200 0.401400
vt 0.523100 0.795400
vt 0.604500 0.822600
vt 0.648900 0.878000
vt 0.676000 0.764900
vt 0.658700 0.350100
vt 0.710400 0.414600
vt 0.494400 0.863500
vt 0.560100 0.907600
vt 0.597600 0.977300
vt 0.660700 0.997400
vt 0.680600 0.956300
vt 0.549300 0.998800
vt 0.712700 0.238700
vt 0.658300 0.280300
vt 0.529900 0.375500
vt 0.401200 0.337900
vt 0.284200 0.297400
vt 0.218700 0.275900
vt 0.563700 0.311300
vt 0.421500 0.266200
vt 0.294300 0.228600
vt 0.226700 0.214700
vt 0.563700 0.237800
vt 0.435300 0.193100
vt 0.311600 0.164800
vt 0.241200 0.156700
vt 0.160600 0.291700
vt 0.086600 0.315000
vt 0.025100 0.340800
vt 0.040200 0.615200
vt 0.168800 0.204200
vt 0.100700 0.211500
vt 0.030600 0.227600
vt 0.001100 0.681100
vt 0.192200 0.127100
vt 0.128700 0.108400
vt 0.074900 0.093500
vt 0.040600 0.095400
vt 0.001300 0.166300
vt 0.130200 0.007200
vt 0.017100 0.847400
vn -0.210700 -0.938802 0.272501
vn -0.239791 -0.777571 0.581278
vn -0.397586 -0.723775 0.563981
vn -0.437394 -0.831289 0.342995
vn 0.019600 -0.971991 0.234198
vn 0.030500 -0.800611 0.598408
vn -0.239791 -0.777571 0.581278
vn -0.210700 -0.938802 0.272501
vn 0.177791 -0.951549 0.250887
vn 0.248086 -0.757257 0.604165
vn 0.030500 -0.800611 0.598408
vn 0.019600 -0.971991 0.234198
vn 0.418294 -0.827788 0.373895
vn 0.391994 -0.670789 0.629590
vn 0.248086 -0.757257 0.604165
vn 0.177791 -0.951549 0.250887
vn -0.195991 -0.980553 0.010200
vn -0.210700 -0.938802 0.272501
vn -0.437394 -0.831289 0.342995
vn -0.477514 -0.878425 0.018701
vn 0.014600 -0.999893 0.000000
vn 0.019600 -0.971991 0.234198
vn -0.210700 -0.938802 0.272501
vn -0.195991 -0.980553 0.010200
vn 0.159304 -0.987228 -0.002000
vn 0.177791 -0.951549 0.250887
vn 0.019600 -0.971991 0.234198
vn 0.014600 -0.999893 0.000000
vn 0.430783 -0.902165 0.022899
vn 0.418294 -0.827788 0.373895
vn 0.177791 -0.951549 0.250887
vn 0.159304 -0.987228 -0.002000
vn -0.201407 -0.945433 -0.256109
vn -0.195991 -0.980553 0.010200
vn -0.477514 -0.878425 0.018701
vn -0.473891 -0.832984 -0.285595
vn 0.005300 -0.967190 -0.253997
vn 0.014600 -0.999893 0.000000
vn -0.195991 -0.980553 0.010200
vn -0.201407 -0.945433 -0.256109
vn 0.159898 -0.953790 -0.254397
vn 0.159304 -0.987228 -0.002000
vn 0.014600 -0.999893 0.000000
vn 0.005300 -0.967190 -0.253997
vn 0.391697 -0.871893 -0.293898
vn 0.430783 -0.902165 0.022899
vn 0.159304 -0.987228 -0.002000
vn 0.159898 -0.953790 -0.254397
vn -0.226897 -0.813688 -0.535192
vn -0.201407 -0.945433 -0.256109
vn -0.473891 -0.832984 -0.285595
vn -0.439497 -0.750995 -0.492797
vn 0.003100 -0.820026 -0.572318
vn 0.005300 -0.967190 -0.253997
vn -0.201407 -0.945433 -0.256109
vn -0.226897 -0.813688 -0.535192
vn 0.173001 -0.796905 -0.578803
vn 0.159898 -0.953790 -0.254397
vn 0.005300 -0.967190 -0.253997
vn 0.003100 -0.820026 -0.572318
vn 0.335497 -0.763593 -0.551695
vn 0.391697 -0.871893 -0.293898
vn 0.159898 -0.953790 -0.254397
vn 0.173001 -0.796905 -0.578803
vn -0.232308 0.896433 0.377414
vn -0.478391 0.780785 0.401892
vn -0.399619 0.687333 0.606529
vn -0.222396 0.727388 0.649189
vn 0.001800 0.930693 0.365797
vn -0.232308 0.896433 0.377414
vn -0.222396 0.727388 0.649189
vn -0.002200 0.755984 0.654586
vn 0.221803 0.903511 0.366704
vn 0.001800 0.930693 0.365797
vn -0.002200 0.755984 0.654586
vn 0.219992 0.752572 0.620677
vn 0.463004 0.790306 0.401303
vn 0.221803 0.903511 0.366704
vn 0.219992 0.752572 0.620677
vn 0.387792 0.722884 0.571888
vn -0.245010 0.968241 0.049802
vn -0.525096 0.848093 0.070799
vn -0.478391 0.780785 0.401892
vn -0.232308 0.896433 0.377414
vn 0.003200 0.999662 0.025799
vn -0.245010 0.968241 0.049802
vn -0.232308 0.896433 0.377414
vn 0.001800 0.930693 0.365797
vn 0.212299 0.976795 0.028300
vn 0.003200 0.999662 0.025799
vn 0.001800 0.930693 0.365797
vn 0.221803 0.903511 0.366704
vn 0.504323 0.861140 0.064003
vn 0.212299 0.976795 0.028300
vn 0.221803 0.903511 0.366704
vn 0.463004 0.790306 0.401303
vn -0.222892 0.935166 -0.275290
vn -0.515013 0.817020 -0.259306
vn -0.525096 0.848093 0.070799
vn -0.245010 0.968241 0.049802
vn 0.003000 0.950011 -0.312203
vn -0.222892 0.935166 -0.275290
vn -0.245010 0.968241 0.049802
vn 0.003200 0.999662 0.025799
vn 0.189993 0.931264 -0.310888
vn 0.003000 0.950011 -0.312203
vn 0.003200 0.999662 0.025799
vn 0.212299 0.976795 0.028300
vn 0.451578 0.835159 -0.313985
vn 0.189993 0.931264 -0.310888
vn 0.212299 0.976795 0.028300
vn 0.504323 0.861140 0.064003
vn -0.213600 0.777499 -0.591499
vn -0.457508 0.724312 -0.515809
vn -0.515013 0.817020 -0.259306
vn -0.222892 0.935166 -0.275290
vn -0.001300 0.790051 -0.613040
vn -0.213600 0.777499 -0.591499
vn -0.222892 0.935166 -0.275290
vn 0.003000 0.950011 -0.312203
vn 0.178891 0.775660 -0.605269
vn -0.001300 0.790051 -0.613040
vn 0.003000 0.950011 -0.312203
vn 0.189993 0.931264 -0.310888
vn 0.364580 0.746160 -0.557070
vn 0.178891 0.775660 -0.605269
vn 0.189993 0.931264 -0.310888
vn 0.451578 0.835159 -0.313985
vn -0.268595 -0.415392 0.869084
vn -0.512789 -0.435791 0.739685
vn -0.397586 -0.723775 0.563981
vn -0.239791 -0.777571 0.581278
vn 0.034200 -0.431001 0.901703
vn -0.268595 -0.415392 0.869084
vn -0.239791 -0.777571 0.581278
vn 0.030500 -0.800611 0.598408
vn 0.307694 -0.416292 0.855584
vn 0.034200 -0.431001 0.901703
vn 0.030500 -0.800611 0.598408
vn 0.248086 -0.757257 0.604165
vn 0.501817 -0.393613 0.770226
vn 0.307694 -0.416292 0.855584
vn 0.248086 -0.757257 0.604165
vn 0.391994 -0.670789 0.629590
vn -0.272704 0.078201 0.958915
vn -0.570005 0.083301 0.817407
vn -0.512789 -0.435791 0.739685
vn -0.268595 -0.415392 0.869084
vn 0.012300 0.051400 0.998602
vn -0.272704 0.078201 0.958915
vn -0.268595 -0.415392 0.869084
vn 0.034200 -0.431001 0.901703
vn 0.317907 -0.000200 0.948122
vn 0.012300 0.051400 0.998602
vn 0.034200 -0.431001 0.901703
vn 0.307694 -0.416292 0.855584
vn 0.567630 -0.008100 0.823244
vn 0.317907 -0.000200 0.948122
vn 0.307694 -0.416292 0.855584
vn 0.501817 -0.393613 0.770226
vn -0.243109 0.467818 0.849732
vn -0.494792 0.484093 0.721689
vn -0.570005 0.083301 0.817407
vn -0.272704 0.078201 0.958915
vn -0.005600 0.493900 0.869501
vn -0.243109 0.467818 0.849732
vn -0.272704 0.078201 0.958915
vn 0.012300 0.051400 0.998602
vn 0.258798 0.476196 0.840393
vn -0.005600 0.493900 0.869501
vn 0.012300 0.051400 0.998602
vn 0.317907 -0.000200 0.948122
vn 0.507886 0.467887 0.723280
vn 0.258798 0.476196 0.840393
vn 0.317907 -0.000200 0.948122
vn 0.567630 -0.008100 0.823244
vn -0.222396 0.727388 0.649189
vn -0.399619 0.687333 0.606529
vn -0.494792 0.484093 0.721689
vn -0.243109 0.467818 0.849732
vn -0.002200 0.755984 0.654586
vn -0.222396 0.727388 0.649189
vn -0.243109 0.467818 0.849732
vn -0.005600 0.493900 0.869501
vn 0.219992 0.752572 0.620677
vn -0.002200 0.755984 0.654586
vn -0.005600 0.493900 0.869501
vn 0.258798 0.476196 0.840393
vn 0.387792 0.722884 0.571888
vn 0.219992 0.752572 0.620677
vn 0.258798 0.476196 0.840393
vn 0.507886 0.467887 0.723280
vn 0.707020 -0.469213 0.529115
vn 0.501817 -0.393613 0.770226
vn 0.391994 -0.670789 0.629590
vn 0.418294 -0.827788 0.373895
vn 0.816967 -0.569777 0.088996
vn 0.707020 -0.469213 0.529115
vn 0.418294 -0.827788 0.373895
vn 0.430783 -0.902165 0.022899
vn 0.720012 -0.569809 -0.396107
vn 0.816967 -0.569777 0.088996
vn 0.430783 -0.902165 0.022899
vn 0.391697 -0.871893 -0.293898
vn 0.458686 -0.484986 -0.744578
vn 0.720012 -0.569809 -0.396107
vn 0.391697 -0.871893 -0.293898
vn 0.335497 -0.763593 -0.551695
vn 0.819099 0.020100 0.573300
vn 0.567630 -0.008100 0.823244
vn 0.501817 -0.393613 0.770226
vn 0.707020 -0.469213 0.529115
vn 0.990413 0.024200 0.136002
vn 0.819099 0.020100 0.573300
vn 0.707020 -0.469213 0.529115
vn 0.816967 -0.569777 0.088996
vn 0.895406 0.017600 -0.444903
vn 0.990413 0.024200 0.136002
vn 0.816967 -0.569777 0.088996
vn 0.720012 -0.569809 -0.396107
vn 0.542409 0.000300 -0.840114
vn 0.895406 0.017600 -0.444903
vn 0.720012 -0.569809 -0.396107
vn 0.458686 -0.484986 -0.744578
vn 0.713772 0.498581 0.491881
vn 0.507886 0.467887 0.723280
vn 0.567630 -0.008100 0.823244
vn 0.819099 0.020100 0.573300
vn 0.818529 0.563020 0.114104
vn 0.713772 0.498581 0.491881
vn 0.819099 0.020100 0.573300
vn 0.990413 0.024200 0.136002
vn 0.739600 0.559300 -0.374400
vn 0.818529 0.563020 0.114104
vn 0.990413 0.024200 0.136002
vn 0.895406 0.017600 -0.444903
vn 0.478698 0.489298 -0.728997
vn 0.739600 0.559300 -0.374400
vn 0.895406 0.017600 -0.444903
vn 0.542409 0.000300 -0.840114
vn 0.463004 0.790306 0.401303
vn 0.387792 0.722884 0.571888
vn 0.507886 0.467887 0.723280
vn 0.713772 0.498581 0.491881
vn 0.504323 0.861140 0.064003
vn 0.463004 0.790306 0.401303
vn 0.713772 0.498581 0.491881
vn 0.818529 0.563020 0.114104
vn 0.451578 0.835159 -0.313985
vn 0.504323 0.861140 0.064003
vn 0.818529 0.563020 0.114104
vn 0.739600 0.559300 -0.374400
vn 0.364580 0.746160 -0.557070
vn 0.451578 0.835159 -0.313985
vn 0.739600 0.559300 -0.374400
vn 0.478698 0.489298 -0.728997
vn 0.208788 -0.466273 -0.859650
vn 0.458686 -0.484986 -0.744578
vn 0.335497 -0.763593 -0.551695
vn 0.173001 -0.796905 -0.578803
vn 0.001500 -0.486491 -0.873684
vn 0.208788 -0.466273 -0.859650
vn 0.173001 -0.796905 -0.578803
vn 0.003100 -0.820026 -0.572318
vn -0.290309 -0.484314 -0.825324
vn 0.001500 -0.486491 -0.873684
vn 0.003100 -0.820026 -0.572318
vn -0.226897 -0.813688 -0.535192
vn -0.576580 -0.484784 -0.657678
vn -0.290309 -0.484314 -0.825324
vn -0.226897 -0.813688 -0.535192
vn -0.439497 -0.750995 -0.492797
vn 0.233292 -0.016499 -0.972267
vn 0.542409 0.000300 -0.840114
vn 0.458686 -0.484986 -0.744578
vn 0.208788 -0.466273 -0.859650
vn -0.008000 -0.007000 -0.999943
vn 0.233292 -0.016499 -0.972267
vn 0.208788 -0.466273 -0.859650
vn 0.001500 -0.486491 -0.873684
vn -0.318708 0.007400 -0.947824
vn -0.008000 -0.007000 -0.999943
vn 0.001500 -0.486491 -0.873684
vn -0.290309 -0.484314 -0.825324
vn -0.644011 0.002500 -0.765013
vn -0.318708 0.007400 -0.947824
vn -0.290309 -0.484314 -0.825324
vn -0.576580 -0.484784 -0.657678
vn 0.207607 0.457514 -0.864627
vn 0.478698 0.489298 -0.728997
vn 0.542409 0.000300 -0.840114
vn 0.233292 -0.016499 -0.972267
vn -0.008500 0.470483 -0.882368
vn 0.207607 0.457514 -0.864627
vn 0.233292 -0.016499 -0.972267
vn -0.008000 -0.007000 -0.999943
vn -0.271204 0.443007 -0.854513
vn -0.008500 0.470483 -0.882368
vn -0.008000 -0.007000 -0.999943
vn -0.318708 0.007400 -0.947824
vn -0.577712 0.449209 -0.681514
vn -0.271204 0.443007 -0.854513
vn -0.318708 0.007400 -0.947824
vn -0.644011 0.002500 -0.765013
vn 0.178891 0.775660 -0.605269
vn 0.364580 0.746160 -0.557070
vn 0.478698 0.489298 -0.728997
vn 0.207607 0.457514 -0.864627
vn -0.001300 0.790051 -0.613040
vn 0.178891 0.775660 -0.605269
vn 0.207607 0.457514 -0.864627
vn -0.008500 0.470483 -0.882368
vn -0.213600 0.777499 -0.591499
vn -0.001300 0.790051 -0.613040
vn -0.008500 0.470483 -0.882368
vn -0.271204 0.443007 -0.854513
vn -0.457508 0.724312 -0.515809
vn -0.213600 0.777499 -0.591499
vn -0.271204 0.443007 -0.854513
vn -0.577712 0.449209 -0.681514
vn -0.763309 -0.534607 -0.362704
vn -0.576580 -0.484784 -0.657678
vn -0.439497 -0.750995 -0.492797
vn -0.473891 -0.832984 -0.285595
vn -0.837780 -0.545087 0.031699
vn -0.763309 -0.534607 -0.362704
vn -0.473891 -0.832984 -0.285595
vn -0.477514 -0.878425 0.018701
vn -0.737784 -0.504689 0.448290
vn -0.837780 -0.545087 0.031699
vn -0.477514 -0.878425 0.018701
vn -0.437394 -0.831289 0.342995
vn -0.512789 -0.435791 0.739685
vn -0.737784 -0.504689 0.448290
vn -0.437394 -0.831289 0.342995
vn -0.397586 -0.723775 0.563981
vn -0.913405 -0.006300 -0.407002
vn -0.644011 0.002500 -0.765013
vn -0.576580 -0.484784 -0.657678
vn -0.763309 -0.534607 -0.362704
vn -0.997523 0.019100 0.067702
vn -0.913405 -0.006300 -0.407002
vn -0.763309 -0.534607 -0.362704
vn -0.837780 -0.545087 0.031699
vn -0.871972 0.062998 0.485485
vn -0.997523 0.019100 0.067702
vn -0.837780 -0.545087 0.031699
vn -0.737784 -0.504689 0.448290
vn -0.570005 0.083301 0.817407
vn -0.871972 0.062998 0.485485
vn -0.737784 -0.504689 0.448290
vn -0.512789 -0.435791 0.739685
vn -0.784499 0.517099 -0.342300
vn -0.577712 0.449209 -0.681514
vn -0.644011 0.002500 -0.765013
vn -0.913405 -0.006300 -0.407002
vn -0.833835 0.545523 0.084404
vn -0.784499 0.517099 -0.342300
vn -0.913405 -0.006300 -0.407002
vn -0.997523 0.019100 0.067702
vn -0.728960 0.513872 0.452275
vn -0.833835 0.545523 0.084404
vn -0.997523 0.019100 0.067702
vn -0.871972 0.062998 0.485485
vn -0.494792 0.484093 0.721689
vn -0.728960 0.513872 0.452275
vn -0.871972 0.062998 0.485485
vn -0.570005 0.083301 0.817407
vn -0.515013 0.817020 -0.259306
vn -0.457508 0.724312 -0.515809
vn -0.577712 0.449209 -0.681514
vn -0.784499 0.517099 -0.342300
vn -0.525096 0.848093 0.070799
vn -0.515013 0.817020 -0.259306
vn -0.784499 0.517099 -0.342300
vn -0.833835 0.545523 0.084404
vn -0.478391 0.780785 0.401892
vn -0.525096 0.848093 0.070799
vn -0.833835 0.545523 0.084404
vn -0.728960 0.513872 0.452275
vn -0.399619 0.687333 0.606529
vn -0.478391 0.780785 0.401892
vn -0.728960 0.513872 0.452275
vn -0.494792 0.484093 0.721689
s off
g rock
usemtl rock1:rock1_mat
f 1/1/1 2/2/2 3/3/3 4/4/4
f 5/5/5 6/6/6 2/2/7 1/1/8
f 7/7/9 8/8/10 6/6/11 5/5/12
f 9/9/13 10/10/14 8/8/15 7/7/16
f 11/11/17 1/12/18 4/13/19 12/14/20
f 13/15/21 5/16/22 1/12/23 11/11/24
f 14/17/25 7/18/26 5/16/27 13/15/28
f 15/19/29 9/20/30 7/18/31 14/17/32
f 16/21/33 11/11/34 12/14/35 17/22/36
f 18/23/37 13/15/38 11/11/39 16/21/40
f 19/24/41 14/17/42 13/15/43 18/23/44
f 20/25/45 15/19/46 14/17/47 19/24/48
f 21/26/49 16/21/50 17/22/51 22/27/52
f 23/28/53 18/23/54 16/21/55 21/26/56
f 24/29/57 19/24/58 18/23/59 23/28/60
f 25/30/61 20/25/62 19/24/63 24/29/64
f 26/31/65 27/32/66 28/33/67 29/34/68
f 30/35/69 26/31/70 29/34/71 31/36/72
f 32/37/73 30/35/74 31/36/75 33/38/76
f 34/39/77 32/37/78 33/38/79 35/40/80
f 36/41/81 37/42/82 27/32/83 26/31/84
f 38/43/85 36/41/86 26/31/87 30/35/88
f 39/44/89 38/43/90 30/35/91 32/37/92
f 40/45/93 39/44/94 32/37/95 34/39/96
f 41/46/97 42/47/98 37/48/99 36/49/100
f 43/50/101 41/46/102 36/49/103 38/51/104
f 44/52/105 43/50/106 38/51/107 39/53/108
f 45/54/109 44/52/110 39/53/111 40/55/112
f 46/56/113 47/57/114 42/47/115 41/46/116
f 48/58/117 46/56/118 41/46/119 43/50/120
f 49/59/121 48/58/122 43/50/123 44/52/124
f 50/60/125 49/59/126 44/52/127 45/54/128
f 51/61/129 52/62/130 3/3/131 2/2/132
f 53/63/133 51/61/134 2/2/135 6/6/136
f 54/64/137 53/63/138 6/6/139 8/8/140
f 55/65/141 54/64/142 8/8/143 10/10/144
f 56/66/145 57/67/146 52/62/147 51/61/148
f 58/68/149 56/66/150 51/61/151 53/63/152
f 59/69/153 58/68/154 53/63/155 54/64/156
f 60/70/157 59/69/158 54/64/159 55/65/160
f 61/71/161 62/72/162 57/67/163 56/66/164
f 63/73/165 61/71/166 56/66/167 58/68/168
f 64/74/169 63/73/170 58/68/171 59/69/172
f 65/75/173 64/74/174 59/69/175 60/70/176
f 29/34/177 28/33/178 62/72/179 61/71/180
f 31/36/181 29/34/182 61/71/183 63/73/184
f 33/38/185 31/36/186 63/73/187 64/74/188
f 35/40/189 33/38/190 64/74/191 65/75/192
f 66/76/193 55/65/194 10/10/195 9/9/196
f 67/77/197 66/76/198 9/9/199 15/78/200
f 68/79/201 67/80/202 15/19/203 20/25/204
f 69/81/205 68/79/206 20/25/207 25/30/208
f 70/82/209 60/70/210 55/65/211 66/76/212
f 71/83/213 70/82/214 66/76/215 67/77/216
f 72/84/217 71/83/218 67/77/219 68/85/220
f 73/86/221 72/87/222 68/79/223 69/81/224
f 74/88/225 65/75/226 60/70/227 70/82/228
f 75/89/229 74/88/230 70/82/231 71/83/232
f 76/90/233 75/89/234 71/83/235 72/84/236
f 77/91/237 76/90/238 72/84/239 73/92/240
f 34/39/241 35/40/242 65/75/243 74/88/244
f 40/45/245 34/39/246 74/88/247 75/89/248
f 45/93/249 40/45/250 75/89/251 76/90/252
f 50/60/253 45/54/254 76/94/255 77/95/256
f 78/96/257 69/81/258 25/30/259 24/29/260
f 79/97/261 78/96/262 24/29/263 23/28/264
f 80/98/265 79/97/266 23/28/267 21/26/268
f 81/99/269 80/98/270 21/26/271 22/27/272
f 82/100/273 73/86/274 69/81/275 78/96/276
f 83/101/277 82/100/278 78/96/279 79/97/280
f 84/102/281 83/101/282 79/97/283 80/98/284
f 85/103/285 84/102/286 80/98/287 81/99/288
f 86/104/289 77/95/290 73/86/291 82/100/292
f 87/105/293 86/104/294 82/100/295 83/101/296
f 88/106/297 87/105/298 83/101/299 84/102/300
f 89/107/301 88/106/302 84/102/303 85/103/304
f 49/59/305 50/60/306 77/95/307 86/104/308
f 48/58/309 49/59/310 86/104/311 87/105/312
f 46/56/313 48/58/314 87/105/315 88/106/316
f 47/57/317 46/56/318 88/106/319 89/107/320
f 90/108/321 81/99/322 22/27/323 17/22/324
f 91/109/325 90/108/326 17/22/327 12/14/328
f 92/110/329 91/109/330 12/14/331 4/13/332
f 52/62/333 92/111/334 4/4/335 3/3/336
f 93/112/337 85/103/338 81/99/339 90/108/340
f 94/113/341 93/112/342 90/108/343 91/109/344
f 95/114/345 94/113/346 91/109/347 92/110/348
f 57/67/349 95/115/350 92/111/351 52/62/352
f 96/116/353 89/107/354 85/103/355 93/112/356
f 97/117/357 96/116/358 93/112/359 94/113/360
f 98/118/361 97/117/362 94/113/363 95/114/364
f 62/119/365 98/118/366 95/114/367 57/120/368
f 42/47/369 47/57/370 89/107/371 96/116/372
f 37/48/373 42/47/374 96/116/375 97/117/376
f 27/121/377 37/48/378 97/117/379 98/118/380
f 28/33/381 27/32/382 98/122/383 62/72/384
