# This file uses centimeters as units for non-parametric coordinates.

mtllib paper.mtl
g default
v -33.264459 295.790182 55.186709
v -26.611568 300.487452 55.186709
v -19.958676 303.907340 55.186709
v -13.305783 303.907340 55.186709
v -6.652891 298.584892 55.186709
v 0.000000 306.211855 55.186709
v 6.652893 299.358037 55.186709
v 13.305783 303.907340 55.186709
v 19.958676 308.513305 55.186709
v 26.611570 303.907340 55.186709
v 33.264459 303.907340 55.186709
v -30.973369 303.907340 44.149368
v -26.611568 303.907340 44.149368
v -19.958676 303.907340 44.149368
v -13.305783 303.907340 44.149368
v -6.652891 303.907340 44.149368
v 0.000000 303.907340 44.149368
v 6.652893 303.907340 44.149368
v 13.305783 303.907340 44.149368
v 19.958676 303.907340 44.149368
v 26.611570 298.510964 44.149368
v 33.264459 303.907340 44.149368
v -33.264459 303.907340 33.112027
v -26.611568 303.907340 33.112027
v -19.958676 303.907340 33.112027
v -13.305783 299.529376 33.112027
v -6.652891 303.907340 33.112027
v 0.000000 303.907340 33.112027
v 6.652893 303.907340 33.112027
v 13.305783 303.907340 33.112027
v 19.958676 303.907340 33.112027
v 26.611570 303.907340 33.112027
v 33.264459 303.907340 33.112027
v -33.264459 298.071383 22.074682
v -26.611568 303.907340 22.074682
v -19.958676 303.907340 22.074682
v -13.305783 303.907340 22.074682
v -6.652891 303.907340 22.074682
v 0.000000 303.907340 22.074682
v 6.652893 303.907340 22.074682
v 13.305783 303.907340 22.074682
v 19.958676 303.907340 22.074682
v 26.611570 303.907340 22.074682
v 33.264459 306.854257 22.074682
v -33.264459 303.907340 11.037341
v -26.611568 303.907340 11.037341
v -19.958676 303.907340 11.037341
v -13.305783 303.907340 11.037341
v -6.652891 303.907340 11.037341
v 0.000000 301.094883 11.037341
v 6.652893 301.094883 11.037341
v 13.305783 303.907340 11.037341
v 19.958676 309.160335 11.037341
v 26.611570 303.907340 11.037341
v 33.264459 303.907340 11.037341
v -33.264459 307.664543 0.000000
v -26.611568 303.907340 0.000000
v -19.958676 303.907340 0.000000
v -13.305783 303.907340 0.000000
v -6.652891 303.907340 0.000000
v 0.000000 303.907340 0.000000
v 6.652893 303.907340 0.000000
v 13.305783 303.907340 0.000000
v 19.958676 303.907340 0.000000
v 26.611570 303.907340 0.000000
v 33.264459 303.907340 0.000000
v -33.264459 303.907340 -11.037344
v -26.611568 303.907340 -11.037344
v -19.958676 301.094883 -11.037344
v -13.305783 303.907340 -11.037344
v -6.652891 303.907340 -11.037344
v 0.000000 303.907340 -11.037344
v 6.652893 303.907340 -11.037344
v 13.305783 303.907340 -11.037344
v 19.958676 295.620086 -11.037344
v 26.611570 303.907340 -11.037344
v 33.264459 303.907340 -11.037344
v -33.264459 306.854257 -22.074682
v -26.611568 303.907340 -22.074682
v -19.958676 303.907340 -22.074682
v -13.305783 303.907340 -22.074682
v -6.652891 301.094883 -22.074682
v 0.000000 303.907340 -22.074682
v 6.652893 303.907340 -22.074682
v 13.305783 303.907340 -22.074682
v 19.958676 303.907340 -22.074682
v 26.611570 303.907340 -22.074682
v 33.264459 304.041799 -22.074682
v -33.264459 303.907340 -33.112027
v -26.611568 303.907340 -33.112027
v -19.958676 303.907340 -33.112027
v -13.305783 303.907340 -33.112027
v -6.652891 303.907340 -33.112027
v 0.000000 303.907340 -33.112027
v 6.652893 303.907340 -33.112027
v 13.305783 303.907340 -33.112027
v 19.958676 301.094883 -33.112027
v 26.611570 303.907340 -33.112027
v 33.264459 303.907340 -33.112027
v -33.264459 303.907340 -44.149371
v -26.611568 303.907340 -44.149371
v -19.958676 303.907340 -44.149371
v -13.305783 303.907340 -44.149371
v -6.652891 303.907340 -44.149371
v 0.000000 303.907340 -44.149371
v 6.652893 303.907340 -44.149371
v 13.305783 303.907340 -44.149371
v 19.958676 303.907340 -44.149371
v 26.611570 301.094883 -44.149371
v 33.264459 295.354372 -44.149371
v -33.264459 306.854257 -55.186709
v -26.611568 303.907340 -55.186709
v -19.958676 303.907340 -55.186709
v -13.305783 308.521741 -55.186709
v -6.652891 308.521741 -55.186709
v 0.000000 303.907340 -55.186709
v 6.652893 303.907340 -55.186709
v 13.305783 308.521741 -55.186709
v 19.958676 303.907340 -55.186709
v 26.611570 295.354372 -55.186709
v 33.264459 289.854336 -55.186709
vt 0.000000 0.000000
vt 0.100000 0.000000
vt 0.200000 0.000000
vt 0.300000 0.000000
vt 0.400000 0.000000
vt 0.500000 0.000000
vt 0.600000 0.000000
vt 0.700000 0.000000
vt 0.800000 0.000000
vt 0.900000 0.000000
vt 1.000000 0.000000
vt 0.000000 0.100000
vt 0.100000 0.100000
vt 0.200000 0.100000
vt 0.300000 0.100000
vt 0.400000 0.100000
vt 0.500000 0.100000
vt 0.600000 0.100000
vt 0.700000 0.100000
vt 0.800000 0.100000
vt 0.900000 0.100000
vt 1.000000 0.100000
vt 0.000000 0.200000
vt 0.100000 0.200000
vt 0.200000 0.200000
vt 0.300000 0.200000
vt 0.400000 0.200000
vt 0.500000 0.200000
vt 0.600000 0.200000
vt 0.700000 0.200000
vt 0.800000 0.200000
vt 0.900000 0.200000
vt 1.000000 0.200000
vt 0.000000 0.300000
vt 0.100000 0.300000
vt 0.200000 0.300000
vt 0.300000 0.300000
vt 0.400000 0.300000
vt 0.500000 0.300000
vt 0.600000 0.300000
vt 0.700000 0.300000
vt 0.800000 0.300000
vt 0.900000 0.300000
vt 1.000000 0.300000
vt 0.000000 0.400000
vt 0.100000 0.400000
vt 0.200000 0.400000
vt 0.300000 0.400000
vt 0.400000 0.400000
vt 0.500000 0.400000
vt 0.600000 0.400000
vt 0.700000 0.400000
vt 0.800000 0.400000
vt 0.900000 0.400000
vt 1.000000 0.400000
vt 0.000000 0.500000
vt 0.100000 0.500000
vt 0.200000 0.500000
vt 0.300000 0.500000
vt 0.400000 0.500000
vt 0.500000 0.500000
vt 0.600000 0.500000
vt 0.700000 0.500000
vt 0.800000 0.500000
vt 0.900000 0.500000
vt 1.000000 0.500000
vt 0.000000 0.600000
vt 0.100000 0.600000
vt 0.200000 0.600000
vt 0.300000 0.600000
vt 0.400000 0.600000
vt 0.500000 0.600000
vt 0.600000 0.600000
vt 0.700000 0.600000
vt 0.800000 0.600000
vt 0.900000 0.600000
vt 1.000000 0.600000
vt 0.000000 0.700000
vt 0.100000 0.700000
vt 0.200000 0.700000
vt 0.300000 0.700000
vt 0.400000 0.700000
vt 0.500000 0.700000
vt 0.600000 0.700000
vt 0.700000 0.700000
vt 0.800000 0.700000
vt 0.900000 0.700000
vt 1.000000 0.700000
vt 0.000000 0.800000
vt 0.100000 0.800000
vt 0.200000 0.800000
vt 0.300000 0.800000
vt 0.400000 0.800000
vt 0.500000 0.800000
vt 0.600000 0.800000
vt 0.700000 0.800000
vt 0.800000 0.800000
vt 0.900000 0.800000
vt 1.000000 0.800000
vt 0.000000 0.900000
vt 0.100000 0.900000
vt 0.200000 0.900000
vt 0.300000 0.900000
vt 0.400000 0.900000
vt 0.500000 0.900000
vt 0.600000 0.900000
vt 0.700000 0.900000
vt 0.800000 0.900000
vt 0.900000 0.900000
vt 1.000000 0.900000
vt 0.000000 1.000000
vt 0.100000 1.000000
vt 0.200000 1.000000
vt 0.300000 1.000000
vt 0.400000 1.000000
vt 0.500000 1.000000
vt 0.600000 1.000000
vt 0.700000 1.000000
vt 0.800000 1.000000
vt 0.900000 1.000000
vt 1.000000 1.000000
vn -0.359050 0.841941 0.402764
vn -0.317142 0.898401 0.303805
vn -0.162814 0.975639 0.147036
vn -0.195299 0.955962 0.219077
vn -0.127089 0.988929 0.076604
vn 0.017997 0.999779 -0.010848
vn 0.194765 0.973799 0.117397
vn 0.099432 0.994293 -0.038663
vn -0.061253 0.980309 0.187729
vn -0.124454 0.991228 0.044481
vn -0.026031 0.992644 0.118236
vn -0.014499 0.998124 0.059490
vn 0.064264 0.985932 0.154296
vn 0.043131 0.996125 0.076646
vn -0.325319 0.945603 -0.001214
vn -0.169527 0.985525 -0.000632
vn 0.189046 0.932260 -0.308470
vn 0.235833 0.963562 -0.126219
vn 0.233289 0.913871 -0.332289
vn 0.086102 0.994934 -0.051899
vn -0.366545 0.903787 -0.220940
vn -0.375833 0.926687 0.000000
vn -0.113571 0.991169 -0.068456
vn -0.253449 0.955210 -0.152769
vn 0.162332 0.986736 0.000000
vn 0.000000 1.000000 -0.000000
vn -0.162332 0.986736 -0.000000
vn 0.000000 1.000000 0.000000
vn 0.000000 1.000000 0.000000
vn 0.000000 1.000000 0.000000
vn 0.100688 0.993065 0.060691
vn -0.054629 0.986634 0.153524
vn -0.294414 0.939057 0.177462
vn -0.214211 0.976787 0.000000
vn -0.401667 0.915786 -0.000000
vn 0.081880 0.995419 0.049354
vn 0.000000 0.995119 0.098679
vn -0.029397 0.999411 0.017719
vn 0.052531 0.994091 -0.094990
vn -0.052531 0.994091 -0.094990
vn -0.149774 0.988343 0.027317
vn 0.000000 0.992996 0.118149
vn -0.012019 0.998163 0.059382
vn -0.216237 0.976341 0.000000
vn -0.038800 0.993401 0.107927
vn -0.076112 0.974362 0.211718
vn 0.000000 1.000000 0.000000
vn 0.000000 1.000000 0.000000
vn 0.105100 0.994462 0.000000
vn 0.096385 0.995344 0.000000
vn -0.096385 0.995344 0.000000
vn -0.290052 0.957011 0.000000
vn 0.000000 1.000000 0.000000
vn 0.140538 0.989524 -0.033025
vn -0.109824 0.991744 -0.066198
vn 0.190384 0.981212 -0.031253
vn 0.271748 0.962369 0.000000
vn -0.000000 0.997977 -0.063574
vn -0.052742 0.998102 -0.031791
vn 0.052742 0.998102 0.031791
vn 0.052531 0.994091 0.094990
vn -0.052531 0.994091 0.094990
vn 0.004137 0.992692 -0.120606
vn 0.000000 0.956048 -0.293212
vn -0.056262 0.986880 -0.151334
vn 0.000000 1.000000 0.000000
vn 0.225663 0.974164 -0.008940
vn 0.244253 0.969548 -0.017794
vn 0.000000 1.000000 -0.000000
vn -0.052742 0.998102 -0.031791
vn 0.000000 0.997977 -0.063574
vn -0.052742 0.998102 -0.031791
vn 0.000000 1.000000 0.000000
vn 0.297332 0.954774 0.000000
vn 0.000000 1.000000 -0.000000
vn -0.299528 0.954086 0.001453
vn -0.005053 0.999983 0.003045
vn 0.161356 0.986396 0.031418
vn 0.216237 0.976341 0.000000
vn 0.000000 0.997977 0.063574
vn 0.052742 0.998102 0.031791
vn 0.000000 1.000000 0.000000
vn -0.105100 0.994462 -0.000000
vn 0.000000 1.000000 0.000000
vn 0.203783 0.977140 0.060586
vn 0.000000 0.992399 0.123064
vn -0.208508 0.976146 0.060524
vn -0.010105 0.999949 0.000000
vn 0.055254 0.997917 -0.033305
vn 0.109824 0.991744 -0.066198
vn 0.000000 1.000000 0.000000
vn 0.052742 0.998102 0.031791
vn 0.000000 0.997977 0.063574
vn -0.052742 0.998102 0.031791
vn 0.000000 1.000000 0.000000
vn 0.105100 0.994462 0.000000
vn 0.052742 0.998102 -0.031791
vn 0.053760 0.984656 -0.166016
vn 0.199752 0.948207 -0.246986
vn 0.055254 0.997917 0.033305
vn 0.109824 0.991744 0.066198
vn -0.086258 0.994915 0.051993
vn -0.085340 0.984328 0.154320
vn 0.085340 0.984328 0.154320
vn 0.086258 0.994915 0.051993
vn -0.086258 0.994915 0.051993
vn 0.052287 0.989474 0.134934
vn 0.344696 0.938529 0.018644
vn 0.454635 0.847473 -0.274037
vn 0.543465 0.747548 -0.381861
vn 0.109824 0.991744 0.066198
vn 0.214423 0.968152 0.129246
vn -0.169950 0.980114 0.102440
vn -0.133810 0.940441 0.312516
vn 0.133810 0.940441 0.312516
vn 0.169950 0.980114 0.102439
vn -0.169950 0.980114 0.102439
vn 0.000000 0.978843 0.204613
vn 0.514678 0.857105 -0.021862
vn 0.613167 0.723534 -0.317057
vn 0.601435 0.711937 -0.362522
s 1
g pPlane1
usemtl initialShadingGroup
f 1/1/1 2/2/2 13/13/3 12/12/4
f 2/2/2 3/3/5 14/14/6 13/13/3
f 3/3/5 4/4/7 15/15/8 14/14/6
f 4/4/7 5/5/9 16/16/10 15/15/8
f 5/5/9 6/6/11 17/17/12 16/16/10
f 6/6/11 7/7/13 18/18/14 17/17/12
f 7/7/13 8/8/15 19/19/16 18/18/14
f 8/8/15 9/9/17 20/20/18 19/19/16
f 9/9/17 10/10/19 21/21/20 20/20/18
f 10/10/19 11/11/21 22/22/22 21/21/20
f 12/12/4 13/13/3 24/24/23 23/23/24
f 13/13/3 14/14/6 25/25/25 24/24/23
f 14/14/6 15/15/8 26/26/26 25/25/25
f 15/15/8 16/16/10 27/27/27 26/26/26
f 16/16/10 17/17/12 28/28/28 27/27/27
f 17/17/12 18/18/14 29/29/29 28/28/28
f 18/18/14 19/19/16 30/30/30 29/29/29
f 19/19/16 20/20/18 31/31/31 30/30/30
f 20/20/18 21/21/20 32/32/32 31/31/31
f 21/21/20 22/22/22 33/33/33 32/32/32
f 23/23/24 24/24/23 35/35/34 34/34/35
f 24/24/23 25/25/25 36/36/36 35/35/34
f 25/25/25 26/26/26 37/37/37 36/36/36
f 26/26/26 27/27/27 38/38/38 37/37/37
f 27/27/27 28/28/28 39/39/39 38/38/38
f 28/28/28 29/29/29 40/40/40 39/39/39
f 29/29/29 30/30/30 41/41/41 40/40/40
f 30/30/30 31/31/31 42/42/42 41/41/41
f 31/31/31 32/32/32 43/43/43 42/42/42
f 32/32/32 33/33/33 44/44/44 43/43/43
f 34/34/35 35/35/34 46/46/45 45/45/46
f 35/35/34 36/36/36 47/47/47 46/46/45
f 36/36/36 37/37/37 48/48/48 47/47/47
f 37/37/37 38/38/38 49/49/49 48/48/48
f 38/38/38 39/39/39 50/50/50 49/49/49
f 39/39/39 40/40/40 51/51/51 50/50/50
f 40/40/40 41/41/41 52/52/52 51/51/51
f 41/41/41 42/42/42 53/53/53 52/52/52
f 42/42/42 43/43/43 54/54/54 53/53/53
f 43/43/43 44/44/44 55/55/55 54/54/54
f 45/45/46 46/46/45 57/57/56 56/56/57
f 46/46/45 47/47/47 58/58/58 57/57/56
f 47/47/47 48/48/48 59/59/59 58/58/58
f 48/48/48 49/49/49 60/60/60 59/59/59
f 49/49/49 50/50/50 61/61/61 60/60/60
f 50/50/50 51/51/51 62/62/62 61/61/61
f 51/51/51 52/52/52 63/63/63 62/62/62
f 52/52/52 53/53/53 64/64/64 63/63/63
f 53/53/53 54/54/54 65/65/65 64/64/64
f 54/54/54 55/55/55 66/66/66 65/65/65
f 56/56/57 57/57/56 68/68/67 67/67/68
f 57/57/56 58/58/58 69/69/69 68/68/67
f 58/58/58 59/59/59 70/70/70 69/69/69
f 59/59/59 60/60/60 71/71/71 70/70/70
f 60/60/60 61/61/61 72/72/72 71/71/71
f 61/61/61 62/62/62 73/73/73 72/72/72
f 62/62/62 63/63/63 74/74/74 73/73/73
f 63/63/63 64/64/64 75/75/75 74/74/74
f 64/64/64 65/65/65 76/76/76 75/75/75
f 65/65/65 66/66/66 77/77/77 76/76/76
f 67/67/68 68/68/67 79/79/78 78/78/79
f 68/68/67 69/69/69 80/80/80 79/79/78
f 69/69/69 70/70/70 81/81/81 80/80/80
f 70/70/70 71/71/71 82/82/82 81/81/81
f 71/71/71 72/72/72 83/83/83 82/82/82
f 72/72/72 73/73/73 84/84/84 83/83/83
f 73/73/73 74/74/74 85/85/85 84/84/84
f 74/74/74 75/75/75 86/86/86 85/85/85
f 75/75/75 76/76/76 87/87/87 86/86/86
f 76/76/76 77/77/77 88/88/88 87/87/87
f 78/78/79 79/79/78 90/90/89 89/89/90
f 79/79/78 80/80/80 91/91/91 90/90/89
f 80/80/80 81/81/81 92/92/92 91/91/91
f 81/81/81 82/82/82 93/93/93 92/92/92
f 82/82/82 83/83/83 94/94/94 93/93/93
f 83/83/83 84/84/84 95/95/95 94/94/94
f 84/84/84 85/85/85 96/96/96 95/95/95
f 85/85/85 86/86/86 97/97/97 96/96/96
f 86/86/86 87/87/87 98/98/98 97/97/97
f 87/87/87 88/88/88 99/99/99 98/98/98
f 89/89/90 90/90/89 101/101/100 100/100/101
f 90/90/89 91/91/91 102/102/102 101/101/100
f 91/91/91 92/92/92 103/103/103 102/102/102
f 92/92/92 93/93/93 104/104/104 103/103/103
f 93/93/93 94/94/94 105/105/105 104/104/104
f 94/94/94 95/95/95 106/106/106 105/105/105
f 95/95/95 96/96/96 107/107/107 106/106/106
f 96/96/96 97/97/97 108/108/108 107/107/107
f 97/97/97 98/98/98 109/109/109 108/108/108
f 98/98/98 99/99/99 110/110/110 109/109/109
f 100/100/101 101/101/100 112/112/111 111/111/112
f 101/101/100 102/102/102 113/113/113 112/112/111
f 102/102/102 103/103/103 114/114/114 113/113/113
f 103/103/103 104/104/104 115/115/115 114/114/114
f 104/104/104 105/105/105 116/116/116 115/115/115
f 105/105/105 106/106/106 117/117/117 116/116/116
f 106/106/106 107/107/107 118/118/118 117/117/117
f 107/107/107 108/108/108 119/119/119 118/118/118
f 108/108/108 109/109/109 120/120/120 119/119/119
f 109/109/109 110/110/110 121/121/121 120/120/120
